<svg xmlns="http://www.w3.org/2000/svg" viewBox="0 0 43.53 31.59" width="44" height="32">
    <defs>
        <style>
            .cls-1,.cls-3{fill:#66BBE4;stroke:#fff;}.cls-1{stroke-width:0.4px;}.cls-2{fill:#fff;}.cls-3{stroke-width:0.8px;}
        </style>
    </defs>
    <title>
        Asset 1
    </title>
    <g id="Layer_2" data-name="Layer 2">
        <g id="Layer_1-2" data-name="Layer 1">
            <rect width="38.15" height="25.06" x="0.57" y="5.88" class="cls-1"/>
            <polygon points="43.1 24.52 38.71 30.94 38.71 5.88 43.1 0.56 43.1 24.52" class="cls-1"/>
            <polygon points="7.15 0.56 43.1 0.56 38.71 5.88 0.57 5.88 7.15 0.56" class="cls-1"/>
            <polygon points="18.93 26.09 18.93 22.7 19.94 22.7 19.95 26.09 21.53 26.09 19.44 29.79 17.34 26.09 18.93 26.09" class="cls-2"/>
            <polygon points="7.07 25.2 9.73 20.6 8.66 19.99 6 24.59 4.34 23.63 4.29 28.77 8.73 26.16 7.07 25.2" class="cls-2"/>
            <polygon points="32.15 25.2 29.49 20.6 30.55 19.99 33.21 24.59 34.88 23.63 34.92 28.77 30.48 26.16 32.15 25.2" class="cls-2"/>
            <polygon points="25.53 25.68 24.65 22.41 25.63 22.14 26.51 25.41 28.05 25.01 26.98 29.12 24 26.09 25.53 25.68" class="cls-2"/>
            <polygon points="13.48 25.68 14.37 22.41 13.39 22.14 12.51 25.41 10.97 25.01 12.04 29.12 15.02 26.09 13.48 25.68" class="cls-2"/>
            <polygon points="11.18 11.98 11.19 17.29 9.96 17.29 9.95 11.98 8.03 11.98 10.57 7.5 13.1 11.98 11.18 11.98" class="cls-2"/>
            <polygon points="28.53 11.98 28.54 17.29 27.31 17.29 27.3 11.98 25.38 11.98 27.92 7.5 30.45 11.98 28.53 11.98" class="cls-2"/>
            <path d="M24,17.18a4.59,4.59,0,1,1-4.59-4.59A4.59,4.59,0,0,1,24,17.18Z" class="cls-3"/>
        </g>
    </g>
</svg>
