<?xml version="1.0" encoding="utf-8"?>
<!-- Generator: Adobe Illustrator 22.1.0, SVG Export Plug-In . SVG Version: 6.00 Build 0)  -->
<svg version="1.1" id="Layer_1" xmlns="http://www.w3.org/2000/svg" xmlns:xlink="http://www.w3.org/1999/xlink" x="0px" y="0px"
	 viewBox="0 0 160 110" style="enable-background:new 0 0 160 110;" xml:space="preserve" width="160" height="110">
<style type="text/css">
	.st0{fill:#FDFDFF;stroke:#036998;stroke-width:0.4;}
	.st1{fill:#F9143D;stroke:#FFFFFF;stroke-width:0.4;}
	.st2{fill:#FFFFFF;}
	.st3{fill:none;stroke:#036998;stroke-width:0.4;}
</style>
<g id="Layer_2_1_">
	<g id="Layer_1-2">
		<path class="st0" d="M57.1,15.9c-26.9-6.2-41,9.8-38.8,23.6l0.2,0.8C-2.4,44.3,3.1,73,13.1,73h1c-2.5,13.5,21.9,27.2,35.6,20.3
			l0.9-1.1c4.9,12.1,22.1,14.2,39.2,14.7c14.8,0.4,23.4-0.9,29.8-8.5l1,0.3C144.3,101,155,82,149.8,68.3l1.3-0.4
			c8.1-2.5,9-24.2-4.8-27.4l0.3-0.8c6-14.1-8.2-27.4-27.9-24.9l-1.4-0.8C103.2-0.8,62.6,1.6,57.9,16.2L57.1,15.9z"/>
		<polygon class="st1" points="99.2,78.6 95.7,84.3 65.8,84.3 70.7,78.6 		"/>
		<rect x="65.8" y="84.3" class="st1" width="28.6" height="6.2"/>
		<polygon class="st1" points="93.5,98.6 93.5,96.6 97.3,90.6 97.3,94.3 		"/>
		<rect x="60.6" y="96.6" class="st1" width="32.9" height="2"/>
		<rect x="65.8" y="58" class="st1" width="28.4" height="25"/>
		<polygon class="st1" points="94.2,83 99,77.3 99,52.3 94.2,58 		"/>
		<polygon class="st1" points="93.5,96.6 60.6,96.6 64.4,90.6 97.3,90.6 		"/>
		<polygon class="st1" points="94.4,90.6 94.4,84.3 99.2,78.7 99.2,85 		"/>
		<path class="st1" d="M70.4,60.9h19.1c1.2,0,2.2,1.2,2.2,2.6v14c0,1.4-1,2.6-2.2,2.6H70.4c-1.2,0-2.2-1.2-2.2-2.6v-14
			C68.2,62,69.2,60.9,70.4,60.9z"/>
		<polygon class="st1" points="99,52.3 71.3,52.3 65.8,58 94.2,58 		"/>
		<path class="st2" d="M77.5,65.3c-3.5-0.8-5.3,1.3-5,3.1v0.2c-2.7,0.5-2,4.3-0.7,4.3h0.1c-0.3,2.6,3,4.1,4.6,2.6l0.1-0.2
			c0.5,2.4,7.5,2.6,8.9,0.8h0.1c3.1,0.3,4.5-2.2,3.7-3.9h0.2c1-0.3,1.2-3.1-0.6-3.5v-0.1c0.8-1.8-1.1-3.6-3.6-3.2l-0.2-0.1
			c-1.9-1.9-7.1-1.6-7.7,0.3L77.5,65.3z"/>
		<polygon class="st1" points="142.1,50.4 138.6,56.2 108.7,56.2 113.6,50.4 		"/>
		<rect x="108.7" y="56.2" class="st1" width="28.6" height="6.2"/>
		<polygon class="st1" points="136.4,70.4 136.4,68.4 140.2,62.4 140.2,66.1 		"/>
		<rect x="103.5" y="68.4" class="st1" width="32.9" height="2"/>
		<rect x="108.7" y="29.8" class="st1" width="28.4" height="25"/>
		<polygon class="st1" points="137.1,54.8 141.9,49.1 141.9,24.1 137.1,29.8 		"/>
		<polygon class="st1" points="136.4,68.4 103.5,68.4 107.3,62.4 140.2,62.4 		"/>
		<polygon class="st1" points="137.2,62.4 137.2,56.2 142.1,50.6 142.1,56.8 		"/>
		<path class="st1" d="M113.3,32.7h19.1c1.2,0,2.2,1.2,2.2,2.6v14c0,1.4-1,2.6-2.2,2.6h-19.1c-1.2,0-2.2-1.2-2.2-2.6v-14
			C111,33.9,112,32.7,113.3,32.7z"/>
		<polygon class="st1" points="141.9,24.1 114.2,24.1 108.7,29.8 137.1,29.8 		"/>
		<path class="st2" d="M120.4,37.2c-3.5-0.8-5.3,1.3-5,3.1v0.2c-2.7,0.5-2,4.3-0.7,4.3h0.1c-0.3,2.6,3,4.1,4.6,2.6l0.1-0.2
			c0.5,2.4,7.5,2.6,8.9,0.8h0.1c3.1,0.3,4.5-2.2,3.7-3.9h0.2c1-0.3,1.2-3.1-0.6-3.5v-0.1c0.8-1.8-1.1-3.6-3.6-3.2l-0.2-0.1
			c-1.9-1.9-7.1-1.6-7.7,0.3L120.4,37.2z"/>
		<polygon class="st1" points="59.1,48.3 55.6,54 25.7,54 30.6,48.3 		"/>
		<rect x="25.7" y="54" class="st1" width="28.6" height="6.2"/>
		<polygon class="st1" points="53.4,68.2 53.4,66.3 57.2,60.3 57.2,63.9 		"/>
		<rect x="20.6" y="66.3" class="st1" width="32.9" height="2"/>
		<rect x="25.7" y="27.6" class="st1" width="28.4" height="25"/>
		<polygon class="st1" points="54.1,52.6 59,47 59,22 54.1,27.6 		"/>
		<polygon class="st1" points="53.4,66.3 20.6,66.3 24.4,60.3 57.2,60.3 		"/>
		<polygon class="st1" points="54.3,60.2 54.3,54 59.1,48.4 59.1,54.6 		"/>
		<path class="st1" d="M30.3,30.5h19.1c1.2,0,2.2,1.2,2.2,2.6v14c0,1.4-1,2.6-2.2,2.6H30.3c-1.2,0-2.2-1.2-2.2-2.6v-14
			C28.1,31.7,29.1,30.5,30.3,30.5z"/>
		<polygon class="st1" points="59,22 31.2,22 25.7,27.6 54.1,27.6 		"/>
		<path class="st2" d="M36.5,35c-3.5-0.8-5.3,1.3-5,3.1v0.2c-2.7,0.5-2,4.3-0.7,4.3h0.1c-0.3,2.6,3,4.1,4.6,2.6l0.1-0.2
			c0.5,2.4,7.5,2.6,8.9,0.8h0.1c3.1,0.3,4.5-2.2,3.7-3.9h0.2c1-0.3,1.2-3.1-0.6-3.5v-0.1c0.8-1.8-1.1-3.6-3.6-3.2l-0.2-0.1
			c-1.9-1.9-7.1-1.6-7.7,0.3L36.5,35z"/>
		<line class="st3" x1="67.8" y1="81.4" x2="50.1" y2="67.7"/>
		<line class="st3" x1="96.4" y1="78.2" x2="107.6" y2="69.5"/>
		<line class="st3" x1="56.9" y1="35.9" x2="109.8" y2="35.9"/>
	</g>
</g>
</svg>
