<svg version="1.1" xmlns="http://www.w3.org/2000/svg" xmlns:xlink="http://www.w3.org/1999/xlink" x="0px" y="0px"
	 viewBox="0 234.9 612 323" enable-background="new 0 234.9 612 323" xml:space="preserve">
<g>
  <rect x="173.4" y="449.1" fill="#fff" width="27.2" height="106.2"/>
  <path fill="#fff" d="M416.5,479.7c-0.8-0.9-9.3-6-23-6c-17,0-29.8,11.9-29.8,28.1c0,16.1,11.9,28,29.8,28
    c12.8,0,21.2-5.1,23-6v28.9c-3.4,0.8-12.8,3.4-24.7,3.4c-30.6,0-56.9-20.4-56.9-55.2c0-31.5,23.8-55.2,56.9-55.2
    c12.8,0,22.1,3.4,24.7,3.4V479.7z"/>
  <path fill="#fff" d="M136,479.7c-0.9-0.9-9.4-6-22.9-6c-17,0-29.8,11.9-29.8,28.1c0,16.1,11.9,28,29.8,28
    c12.8,0,21.2-5.1,22.9-6v28.9c-3.4,0.8-12.8,3.4-24.6,3.4c-29.8,0-57-20.4-57-55.2c0-31.5,23.8-55.2,57-55.2
    c12.8,0,22.1,3.4,24.6,3.4V479.7z"/>
  <path fill="#fff" d="M556.8,502.7c0,30.6-23.8,55.2-56.1,55.2s-56.1-24.7-56.1-55.2s23.8-55.2,56.1-55.2
    C533.8,447.4,556.8,472.1,556.8,502.7z M500.7,474.6c-16.2,0-28.1,12.8-28.1,28s11.9,28,28.1,28c16.2,0,28-12.8,28-28
    S516.8,474.6,500.7,474.6z"/>
  <path fill="#fff" d="M301.8,473.8c0,0-11.9-3.4-21.2-3.4c-11,0-17,3.4-17,8.5c0,6.8,7.6,8.5,11.9,10.2l7.6,2.5
    c17,6,25.5,17.8,25.5,30.6c0,26.3-23.8,35.7-44.2,35.7c-14.4,0-28-2.5-28.9-2.5v-24.7c2.5,0.8,13.6,4.2,25.5,4.2
    c13.6,0,19.6-4.2,19.6-10.2c0-5.1-5.1-8.5-11.9-10.2c-1.7-0.8-4.2-1.7-6-1.7c-15.3-5.1-27.2-13.6-27.2-31.4
    c0-19.5,15.3-33.1,39.9-33.1c12.8,0,25.5,3.4,26.3,3.4V473.8z"/>
	<path fill="#fff" d="M26.3,335.2c0-7.6-5.9-13.6-13.6-13.6s-13.6,5.9-13.6,13.6v28.1c0,7.6,5.9,13.6,13.6,13.6s13.6-6,13.6-13.6
		V335.2z"/>
	<path fill="#fff" d="M99.4,298.7c0-7.6-5.9-13.6-13.6-13.6s-12.7,6-12.7,13.6v64.6c0,7.6,5.9,13.6,13.6,13.6s13.6-6,13.6-13.6
		v-64.6H99.4z"/>
	<path fill="#fff" d="M173.4,248.5c0-7.7-5.9-13.6-13.6-13.6c-7.6,0-13.6,5.9-13.6,13.6v141.1c0,7.6,5.9,13.6,13.6,13.6
		c7.7,0,13.6-6,13.6-13.6V248.5z"/>
	<path fill="#fff" d="M246.5,298.7c0-7.6-6-13.6-13.6-13.6s-13.6,6-13.6,13.6v64.6c0,7.6,6,13.6,13.6,13.6s13.6-6,13.6-13.6
		V298.7z"/>
	<path fill="#fff" d="M319.6,335.2c0-7.6-5.9-13.6-13.6-13.6c-7.7,0-13.6,5.9-13.6,13.6v28.1c0,7.6,5.9,13.6,13.6,13.6
		c7.7,0,13.6-6,13.6-13.6V335.2z"/>
	<path fill="#fff" d="M392.7,298.7c0-7.6-6-13.6-13.6-13.6s-13.6,6-13.6,13.6v64.6c0,7.6,6,13.6,13.6,13.6
		c7.7,0,13.6-6,13.6-13.6V298.7z"/>
	<path fill="#fff" d="M465.8,248.5c0-7.7-6-13.6-13.6-13.6c-7.7,0-13.6,5.9-13.6,13.6v141.1c0,7.6,6,13.6,13.6,13.6
		s13.6-6,13.6-13.6V248.5z"/>
	<path fill="#fff" d="M538.9,298.7c0-7.6-6-13.6-13.6-13.6c-7.7,0-13.6,6-13.6,13.6v64.6c0,7.6,5.9,13.6,13.6,13.6
		c7.6,0,13.6-6,13.6-13.6V298.7z"/>
	<path fill="#fff" d="M612,335.2c0-7.6-5.9-13.6-13.6-13.6s-13.6,5.9-13.6,13.6v28.1c0,7.6,5.9,13.6,13.6,13.6s13.6-6,13.6-13.6
		V335.2z"/>
</g>
</svg>
