<svg xmlns="http://www.w3.org/2000/svg" viewBox="0 0 504.23 364.97">
    <defs>
        <style>
            .cls-1,.cls-3{fill:#66bbe4;}.cls-1{stroke:#337faa;stroke-miterlimit:10;}.cls-2{fill:#337faa;}
        </style>
    </defs>
    <title>
        Asset 2
    </title>
    <g id="Layer_2" data-name="Layer 2">
        <g id="Layer_1-2" data-name="Layer 1">
            <path d="M407,364.47H55.62A11.82,11.82,0,0,1,43.8,352.66v-22.9L1.89,232a17,17,0,0,1,15.64-23.71H495.05a8.68,8.68,0,0,1,8.68,8.68v65.56a8.68,8.68,0,0,1-2.87,6.45l-76.48,68.83A26,26,0,0,1,407,364.47" class="cls-1"/>
            <polygon points="495.05 208.27 373.56 208.27 373.56 121.49 460.34 121.49 495.05 208.27" class="cls-2"/>
            <polygon points="390.92 121.49 442.99 121.49 442.99 78.1 390.92 78.1 390.92 121.49" class="cls-3"/>
            <path d="M43.8,329.76v22.9a11.82,11.82,0,0,0,11.82,11.81H407a26,26,0,0,0,17.42-6.68l31.14-28Z" class="cls-2"/>
            <polygon points="470.76 147.53 434.31 147.53 434.31 182.24 484.64 182.24 470.76 147.53" class="cls-3"/>
            <path d="M278.1,269a26,26,0,1,0-26,26,26,26,0,0,0,26-26" class="cls-2"/>
            <path d="M425.63,269a26,26,0,1,0-26,26,26,26,0,0,0,26-26" class="cls-2"/>
            <path d="M130.58,269a26,26,0,1,0-26,26,26,26,0,0,0,26-26" class="cls-2"/>
            <polygon points="121.91 208.27 226.04 208.27 226.04 138.85 121.91 138.85 121.91 208.27" class="cls-3"/>
            <polygon points="226.04 208.27 330.18 208.27 330.18 138.85 226.04 138.85 226.04 208.27" class="cls-3"/>
            <polygon points="200.01 138.85 304.14 138.85 304.14 69.42 200.01 69.42 200.01 138.85" class="cls-3"/>
            <polygon points="156.62 69.42 260.75 69.42 260.75 0 156.62 0 156.62 69.42" class="cls-3"/>
            <polygon points="95.87 138.85 200.01 138.85 200.01 69.42 95.87 69.42 95.87 138.85" class="cls-3"/>
            <polygon points="17.77 208.27 121.91 208.27 121.91 138.85 17.77 138.85 17.77 208.27" class="cls-3"/>
            <path d="M226,34.71A8.68,8.68,0,0,0,234.71,26V0H217.36V26A8.68,8.68,0,0,0,226,34.71" class="cls-2"/>
            <path d="M191.33,34.71A8.68,8.68,0,0,0,200,26V0H182.65V26a8.68,8.68,0,0,0,8.68,8.68" class="cls-2"/>
            <path d="M295.46,173.56a8.68,8.68,0,0,0,8.68-8.68v-26H286.78v26a8.68,8.68,0,0,0,8.68,8.68" class="cls-2"/>
            <path d="M260.75,173.56a8.68,8.68,0,0,0,8.68-8.68v-26H252.07v26a8.68,8.68,0,0,0,8.68,8.68" class="cls-2"/>
            <path d="M87.19,173.56a8.68,8.68,0,0,0,8.68-8.68v-26H78.51v26a8.68,8.68,0,0,0,8.68,8.68" class="cls-2"/>
            <path d="M52.48,173.56a8.68,8.68,0,0,0,8.68-8.68v-26H43.8v26a8.68,8.68,0,0,0,8.68,8.68" class="cls-2"/>
            <path d="M269.43,104.14a8.68,8.68,0,0,0,8.67-8.68v-26H260.75v26a8.68,8.68,0,0,0,8.68,8.68" class="cls-2"/>
            <path d="M234.71,104.14a8.68,8.68,0,0,0,8.68-8.68v-26H226v26a8.68,8.68,0,0,0,8.67,8.68" class="cls-2"/>
            <path d="M130.58,104.14a8.68,8.68,0,0,0,8.68-8.68v-26H121.9v26a8.68,8.68,0,0,0,8.68,8.68" class="cls-2"/>
            <path d="M165.29,104.14A8.68,8.68,0,0,0,174,95.46v-26H156.61v26a8.68,8.68,0,0,0,8.68,8.68" class="cls-2"/>
            <path d="M191.33,173.56a8.68,8.68,0,0,0,8.67-8.68v-26H182.65v26a8.68,8.68,0,0,0,8.68,8.68" class="cls-2"/>
            <path d="M156.61,173.56a8.68,8.68,0,0,0,8.68-8.68v-26H147.94v26a8.68,8.68,0,0,0,8.67,8.68" class="cls-2"/>
        </g>
    </g>
</svg>
