<?xml version="1.0" ?>
<svg xmlns="http://www.w3.org/2000/svg" xmlns:xlink="http://www.w3.org/1999/xlink" id="Layer_1" enable-background="new 0 0 512 512" version="1.1" viewBox="0 0 512 512" xml:space="preserve">
    <g>
        <g>
            <linearGradient id="SVGID_1_" x1="0.0000038" x2="512" y1="256" y2="256" gradientUnits="userSpaceOnUse">
                <stop offset="0" style="stop-color:#66BBE4"/>
                <stop offset="1" style="stop-color:#66BBE4"/>
            </linearGradient>
            <circle cx="256" cy="256" r="256" fill="url(#SVGID_1_)"/>
            <path fill="url(#SVGID_2_)" d="M256,469.3338623c-117.6314697,0-213.3333282-95.7023926-213.3333282-213.3333435    c0-117.6314545,95.7018585-213.333313,213.3333282-213.333313c117.6357422,0,213.3333435,95.7018661,213.3333435,213.333313    C469.3333435,373.6314697,373.6357422,469.3338623,256,469.3338623z"/>
        </g>
        <path fill="#FFFFFF" d="M375.9995728,238.8735962V136H136v102.8735962h30.7237396v34.2528076H136v102.8730774h239.9995728   V273.1264038h-30.7190552v-34.2528076H375.9995728z M302.3045349,162.8735962   c13.5664063,0,24.5632019,10.9973297,24.5632019,24.5626678c0,13.5664063-10.9967957,24.5632019-24.5632019,24.5632019   c-13.5653381,0-24.5626831-10.9967957-24.5626831-24.5632019   C277.7418518,173.8709259,288.7391968,162.8735962,302.3045349,162.8735962z M161.8608856,168.988266h69.0527191v10h-69.0527191   V168.988266z M161.8608856,205.8874664v-10h69.0527191v10H161.8608856z M230.9136047,343.0112h-69.0527191v-10h69.0527191V343.0112   z M230.9136047,316.1119995h-69.0527191v-10h69.0527191V316.1119995z M302.3045349,349.1258545   c-13.5653381,0-24.5621338-10.9973145-24.5621338-24.5632019C277.7424011,310.997345,288.7391968,300,302.3045349,300   c13.5664063,0,24.5632019,10.997345,24.5632019,24.5626526C326.8677368,338.12854,315.8709412,349.1258545,302.3045349,349.1258545   z M335.2805176,273.1264038h-158.556778v-34.2528076h158.556778V273.1264038z"/>
    </g>
</svg>
