<svg xmlns="http://www.w3.org/2000/svg" width="35" height="29" viewBox="0 0 34.5 28.05">
    <defs>
        <style>
            .cls-1,.cls-3{fill:none;stroke-width:1.0px;}.cls-1{stroke:#fff;}.cls-2{fill:#7EC35C;}.cls-3{stroke:#ffffff;}
        </style>
    </defs>
    <title>
        Asset 2
    </title>
    <g id="Layer_2" data-name="Layer 2">
        <g id="Layer_1-2" data-name="Layer 1">
            <g id="Layer_2-2" data-name="Layer 2">
                <g id="Layer_1-2-2" data-name="Layer 1-2">
                    <polyline points="0.17 5.21 0.17 5.21 0.43 5.21" class="cls-1"/>
                    <path d="M34.08,0a8.72,8.72,0,0,1-.92.45,4.38,4.38,0,0,1-1.08.61c-.07.05-.13.11-.2.15a4.36,4.36,0,0,1-.87.57,10.75,10.75,0,0,1-4.84,1.94,1.47,1.47,0,0,1-.3.08l-.23.07L25.15,4a4.92,4.92,0,0,1-.8.19,5.1,5.1,0,0,1-1.07.16,5.1,5.1,0,0,1-1,.16,16.78,16.78,0,0,1-10.72-.87,4.48,4.48,0,0,1-1.48-.53,4.53,4.53,0,0,1-.89-.37,4.43,4.43,0,0,1-1.46-.87A4.71,4.71,0,0,1,5.93.11l0-.11H5.29L.11,5.28V28H29.64l4.76-4,0-24Z" class="cls-2"/>
                    <path d="M29.64,4.55h0S18.36,16.84.11,5.28h0" class="cls-1"/>
                    <polyline points="29.64 4.55 29.64 4.55 29.64 4.62 29.64 28.05" class="cls-1"/>
                    <line x1="30.1" x2="34.36" y1="4.55" y2="0.35" class="cls-3"/>
                </g>
            </g>
        </g>
    </g>
</svg>
