<svg xmlns="http://www.w3.org/2000/svg" viewBox="0 0 35.51 17.76" width="35" height="18">
    <defs>
        <style>
            .cls-1{fill:#7EC35C;stroke-width:0.4px;}.cls-1,.cls-2{stroke:#fff;}.cls-2{fill:#fff;stroke-width:0.4px;}
        </style>
    </defs>
    <title>
        Asset 1
    </title>
    <g id="Layer_2" data-name="Layer 2">
        <g id="Layer_1-2" data-name="Layer 1">
            <polygon points="0.56 8.88 10.98 0.46 35.02 0.46 26.4 8.88 0.56 8.88" class="cls-1"/>
            <polygon points="26.4 17.25 35.02 7.95 35.02 0.47 26.4 8.88 26.4 17.25" class="cls-1"/>
            <rect width="25.8" height="8.38" x="0.6" y="8.88" class="cls-1"/>
            <polygon points="14.66 13.52 4.57 13.53 4.57 12.3 14.66 12.29 14.66 10.37 19.14 12.91 14.66 15.45 14.66 13.52" class="cls-2"/>
            <polyline points="5.68 12.3 5.67 10.38 1.19 12.92 5.67 15.45 5.68 13.53" class="cls-2"/>
            <polygon points="25.29 12.3 25.28 10.38 20.8 12.92 25.28 15.45 25.29 13.53 25.29 12.3" class="cls-2"/>
        </g>
    </g>
</svg>
