<svg xmlns="http://www.w3.org/2000/svg" width="36" height="36">
    <g>
        <title>
            Layer 2
        </title>
        <circle id="svg_5" cx="18" cy="17.600001" r="16.417969" fill="#F9143D" stroke="#000000"/>
    </g>
    <g>
        <title>
            Layer 1
        </title>
        <g id="svg_1" stroke="null">
            <path id="svg_2" fill="#ffffff" stroke="#F9143D" d="m0.751281,18.0335c0,9.545817 7.710201,17.284 17.220539,17.284c9.512263,0 17.222461,-7.739149 17.222461,-17.284s-7.711163,-17.284 -17.222461,-17.284c-9.5113,0 -17.220539,7.738183 -17.220539,17.284zm3.374294,2.381869l0,-0.452634c0,-1.849131 1.395298,-4.29856 3.457954,-5.199963c0.159628,-4.035091 3.481034,-7.266249 7.540958,-7.266249c2.705013,0 5.189816,1.463093 6.530303,3.784162c0.518307,-0.225833 1.079891,-0.342611 1.654934,-0.342611c2.061692,0 3.763745,1.47178 4.112812,3.449271c2.813674,0.560723 4.849406,3.282309 4.849406,5.57539l0,0.452634c0,2.79204 -2.860796,5.2405 -6.122581,5.2405l-15.900246,0c-3.261786,0 -6.123542,-2.448461 -6.123542,-5.2405l0.000001,0z"/>
            <g id="svg_3" stroke="null">
                <path id="svg_4" fill="#F9143D" stroke="#F9143D" d="m22.034627,13.26783l-1.188552,0.824197l-0.591393,-1.323154c-0.906797,-2.030573 -2.920413,-3.341181 -5.130196,-3.341181c-1.502999,0 -2.91272,0.589677 -3.973379,1.66094c-1.063541,1.075123 -1.649162,2.510229 -1.648201,4.029297l0.023079,1.05389l-0.885645,0.257684c-1.435684,0.417888 -2.591543,2.274742 -2.591543,3.535164l0,0.452634c0,1.53065 1.833794,3.310298 4.199358,3.310298l15.900246,0c2.365563,0 4.199358,-1.779649 4.199358,-3.310298l0,-0.452634c0,-1.541267 -1.700131,-3.567979 -3.683935,-3.737835l-1.065464,-0.090721l-0.034617,-1.072228c-0.039426,-1.229539 -1.029889,-2.193676 -2.25498,-2.193676c-0.456767,-0.001931 -0.897185,0.136078 -1.274136,0.397623l-0.000001,0z"/>
            </g>
        </g>
    </g>
    <g>
        <title>
            background
        </title>
        <rect id="canvas_background" width="514" height="514" x="-1" y="-1" fill="none"/>
    </g>
</svg>
