<svg xmlns="http://www.w3.org/2000/svg" width="48" height="48">
    <metadata>
        Google Inc.
    </metadata>
    <g>
        <title>
            background
        </title>
        <rect id="canvas_background" width="582" height="402" x="-1" y="-1" fill="none"/>
    </g>
    <g>
        <title>
            Layer 1
        </title>
        <path id="svg_1" fill="none" d="m0,0l48,0l0,48l-48,0l0,-48z"/>
        <ellipse id="svg_5" cx="24.0625" cy="23.9375" fill="#ffffff" stroke="null" stroke-opacity="null" stroke-width="null" rx="18.74983" ry="18.87483"/>
        <path id="svg_2" fill="#FF9400" stroke="null" d="m15.62501,22.94318c0,-1.75432 -1.42375,-3.17045 -3.1875,-3.17045s-3.1875,1.41614 -3.1875,3.17045s1.42375,3.17045 3.1875,3.17045s3.1875,-1.41614 3.1875,-3.17045zm14.87499,-10.56818c0,-1.75432 -1.42375,-3.17045 -3.1875,-3.17045l-6.375,0c-1.76375,0 -3.1875,1.41614 -3.1875,3.17045s1.42375,3.17045 3.1875,3.17045l6.375,0c1.76375,0 3.1875,-1.41614 3.1875,-3.17045zm-13.81249,17.9659c-1.76375,0 -3.1875,1.41614 -3.1875,3.17045s1.42375,3.17045 3.1875,3.17045s3.1875,-1.41614 3.1875,-3.17045s-1.42375,-3.17045 -3.1875,-3.17045zm7.4375,-29.5909c-12.88812,0 -23.37499,10.43079 -23.37499,23.24999s10.48687,23.24999 23.37499,23.24999s23.37499,-10.43079 23.37499,-23.24999s-10.48687,-23.24999 -23.37499,-23.24999zm0,42.27271c-10.55062,0 -19.12499,-8.53909 -19.12499,-19.02272s8.57437,-19.02272 19.12499,-19.02272s19.12499,8.53909 19.12499,19.02272s-8.57437,19.02272 -19.12499,19.02272zm11.68749,-23.24999c-1.76375,0 -3.1875,1.41614 -3.1875,3.17045s1.42375,3.17045 3.1875,3.17045s3.1875,-1.41614 3.1875,-3.17045s-1.42375,-3.17045 -3.1875,-3.17045zm-4.25,10.56818c-1.76375,0 -3.1875,1.41614 -3.1875,3.17045s1.42375,3.17045 3.1875,3.17045s3.1875,-1.41614 3.1875,-3.17045s-1.42375,-3.17045 -3.1875,-3.17045z"/>
    </g>
</svg>
