<svg xmlns="http://www.w3.org/2000/svg" viewBox="0 0 42 42">
  <g fill="none" fill-rule="evenodd">
    <rect width="42" height="42" fill="none"/>
    <path fill="#6DCEEE" d="M31.926,26.129 L28.592,24.283 C29.259,22.59 29.361,20.743 28.848,18.999 C28.541,18.076 28.13,17.204 27.566,16.435 L30.541,13.614 C33.208,17.102 33.875,21.923 31.926,26.129 L31.926,26.129 Z M21.001,33.054 C18.949,33.054 16.949,32.541 15.154,31.566 C9.717,28.54 7.511,21.872 9.922,16.23 L13.461,18.179 C11.922,21.923 13.409,26.334 17.051,28.335 C18.282,29.001 19.616,29.36 21.001,29.36 C23.617,29.36 26.027,28.129 27.566,26.026 L30.9,27.873 C28.695,31.104 25.002,33.054 21.001,33.054 L21.001,33.054 Z M17.923,9.357 L17.923,9.459 L18.744,13.409 C17.051,13.921 15.512,14.947 14.435,16.435 L10.896,14.486 C12.538,11.921 15.051,10.126 17.923,9.357 L17.923,9.357 Z M26.386,24.231 C25.309,26.18 23.258,27.411 21.001,27.411 C19.975,27.411 18.949,27.155 18.026,26.642 C15.051,25.001 13.974,21.256 15.615,18.281 C16.692,16.332 18.744,15.101 21.001,15.101 C22.027,15.101 23.052,15.358 23.976,15.871 C25.412,16.64 26.438,17.973 26.899,19.564 C27.361,21.154 27.156,22.795 26.386,24.231 L26.386,24.231 Z M19.872,8.997 C20.231,8.946 20.642,8.946 21.001,8.946 C23.052,8.946 25.053,9.459 26.746,10.485 C27.617,10.947 28.387,11.511 29.105,12.178 L29.054,12.229 L26.13,14.999 C25.771,14.639 25.361,14.383 24.899,14.127 C23.668,13.46 22.334,13.101 20.949,13.101 L20.693,13.101 L19.872,9.049 L19.872,8.997 Z M21,0 C9.402,0 0,9.402 0,21 C0,32.598 9.402,42 21,42 C32.598,42 42,32.598 42,21 C42,9.402 32.598,0 21,0 L21,0 Z"/>
  </g>
</svg>
