<svg xmlns="http://www.w3.org/2000/svg" viewBox="0 0 42 42">
  <g fill="none" fill-rule="evenodd">
    <rect width="42" height="42"/>
    <path fill="#929BA5" d="M20.8032857,34.9413793 C12.9372857,34.9413793 6.56142857,28.7828966 6.56142857,21.1893793 C6.56142857,13.5958621 12.9372857,7.43737931 20.8032857,7.43737931 C28.668,7.43737931 35.0464286,13.5958621 35.0464286,21.1893793 C35.0464286,28.7828966 28.668,34.9413793 20.8032857,34.9413793 M20.8032857,4 C10.9701429,4 3,11.6953103 3,21.1893793 C3,30.6846897 10.9701429,38.3787586 20.8032857,38.3787586 C30.6364286,38.3787586 38.6065714,30.6846897 38.6065714,21.1893793 C38.6065714,11.6953103 30.6364286,4 20.8032857,4"/>
    <path fill="#929BA5" d="M27.7388214,12.5027591 L20.81525,19.188828 L17.0391071,15.542897 C16.3435357,14.868828 15.21725,14.8713108 14.5216786,15.542897 C13.8261071,16.2144832 13.8261071,17.3019315 14.5216786,17.9735177 L19.5565357,22.8347591 C20.2521071,23.5063453 21.3796786,23.5063453 22.0739643,22.8347591 L30.2601071,14.9346211 C30.9518214,14.2630349 30.9556786,13.1755866 30.25625,12.5027591 C29.5606786,11.8311728 28.4343929,11.8336556 27.7388214,12.5027591 Z"/>
  </g>
</svg>
