<svg xmlns="http://www.w3.org/2000/svg" viewBox="0 0 42 42">
  <g fill="none" fill-rule="evenodd">
    <rect width="42" height="42" fill="none"/>
    <path fill="#E93941" d="M22.7925932,14.2868332 L22.3439943,22.1488334 C22.3439943,23.1422563 21.5376005,23.9486501 20.5441776,23.9486501 C19.5493995,23.9486501 18.7430057,23.1422563 18.7430057,22.1488334 L18.2944068,14.2868332 C18.2862751,14.2055162 18.280854,14.1228439 18.280854,14.0401716 C18.280854,12.7892448 19.2932509,11.7768479 20.5441776,11.7768479 C21.7937491,11.7768479 22.806146,12.7892448 22.806146,14.0401716 C22.806146,14.1228439 22.8020801,14.2055162 22.7925932,14.2868332 M20.5441776,29.3101521 C19.499254,29.3101521 18.653557,28.4644551 18.653557,27.4195314 C18.653557,26.375963 19.499254,25.5302661 20.5441776,25.5302661 C21.587746,25.5302661 22.433443,26.375963 22.433443,27.4195314 C22.433443,28.4644551 21.587746,29.3101521 20.5441776,29.3101521 M20.5441776,3.5435 C11.1547728,3.5435 3.5435,11.1547728 3.5435,20.5428224 C3.5435,29.9322272 11.1547728,37.5435 20.5441776,37.5435 C29.9322272,37.5435 37.5435,29.9322272 37.5435,20.5428224 C37.5435,11.1547728 29.9322272,3.5435 20.5441776,3.5435"/>
  </g>
</svg>
