<?xml version="1.0" encoding="utf-8"?>
<!-- Generator: Adobe Illustrator 22.0.1, SVG Export Plug-In . SVG Version: 6.00 Build 0)  -->
<svg version="1.1" id="Layer_1" xmlns="http://www.w3.org/2000/svg" xmlns:xlink="http://www.w3.org/1999/xlink" x="0px" y="0px"
	 viewBox="0 0 42 42" style="enable-background:new 0 0 42 42;" xml:space="preserve">
<style type="text/css">
	.st0{fill:#66BBE4;}
</style>
<g>
	<path class="st0" d="M13.4,22.3h15.1v-8.6H13.4V22.3z M17.7,17.3h6.5c0.4,0,0.6,0.3,0.6,0.6c0,0.4-0.3,0.6-0.6,0.6h-6.5
		c-0.4,0-0.6-0.3-0.6-0.6C17.1,17.6,17.4,17.3,17.7,17.3z"/>
	<path class="st0" d="M21,0C9.4,0,0,9.4,0,21s9.4,21,21,21s21-9.4,21-21S32.6,0,21,0z M30.7,29.4c0,0.7-0.6,1.3-1.3,1.3H12.5
		c-0.7,0-1.3-0.6-1.3-1.3v-2.1c0-0.7,0.6-1.3,1.3-1.3h16.9c0.7,0,1.3,0.6,1.3,1.3V29.4z M30.7,22c0,1.5-1.2,2.6-2.6,2.6H13.9
		c-1.5,0-2.6-1.2-2.6-2.6v-8c0-1.5,1.2-2.6,2.6-2.6h14.1c1.5,0,2.6,1.2,2.6,2.6V22z"/>
</g>
</svg>
