<svg xmlns="http://www.w3.org/2000/svg" viewBox="0 0 42 42">
  <g fill="none" fill-rule="evenodd">
    <rect width="42" height="42" fill="none"/>
    <g fill="#929BA5" transform="translate(5 11)">
      <path d="M4.0887,0.0004 L-0.0003,1.9744 L-0.0003,5.5464 L0.5407,5.5464 L0.5407,15.7094 L-0.0003,15.9904 L-0.0003,19.3744 L31.7047,19.3744 L31.7047,16.0854 L31.1827,15.5634 L31.1827,5.5934 L31.7047,5.5934 L31.7047,2.1614 L28.0107,0.0004 L4.0887,0.0004 Z M24.3787,14.3254 L29.7377,14.3254 L29.7377,5.7344 L24.3787,5.7344 L24.3787,14.3254 Z M18.4567,14.3254 L23.8157,14.3254 L23.8157,5.7344 L18.4567,5.7344 L18.4567,14.3254 Z M12.4887,14.3254 L17.8477,14.3254 L17.8477,5.7344 L12.4887,5.7344 L12.4887,14.3254 Z M6.9897,15.7094 L11.1727,15.7094 L11.1727,5.7344 L6.9897,5.7344 L6.9897,15.7094 Z M2.1147,15.7094 L6.2967,15.7094 L6.2967,5.7344 L2.1147,5.7344 L2.1147,15.7094 Z"/>
      <polygon points="4.793 11.325 5.734 11.325 5.734 10.987 4.793 10.987"/>
      <polygon points="7.426 11.325 8.366 11.325 8.366 10.987 7.426 10.987"/>
    </g>
  </g>
</svg>
