<svg xmlns="http://www.w3.org/2000/svg" viewBox="0 0 42 42">
  <g fill="none" fill-rule="evenodd">
    <rect width="42" height="42" fill="none"/>
    <path fill="#82CBEB" d="M30.811,13.578 L29.446,13.578 L29.446,12.555 L28.422,12.555 L28.422,11.19 L30.811,11.19 L30.811,13.578 Z M29.446,19.515 L30.811,19.515 L30.811,16.546 L29.446,16.546 L29.446,19.515 Z M29.446,25.453 L30.811,25.453 L30.811,22.484 L29.446,22.484 L29.446,25.453 Z M30.811,30.811 L28.422,30.811 L28.422,29.445 L29.446,29.445 L29.446,28.422 L30.811,28.422 L30.811,30.811 Z M22.485,12.555 L25.454,12.555 L25.454,11.19 L22.485,11.19 L22.485,12.555 Z M22.485,30.81 L25.454,30.81 L25.454,29.445 L22.485,29.445 L22.485,30.81 Z M16.547,12.555 L19.516,12.555 L19.516,11.19 L16.547,11.19 L16.547,12.555 Z M16.547,30.811 L19.516,30.811 L19.516,29.446 L16.547,29.446 L16.547,30.811 Z M13.578,12.555 L12.555,12.555 L12.555,13.578 L11.19,13.578 L11.19,11.19 L13.578,11.19 L13.578,12.555 Z M13.578,30.811 L11.19,30.811 L11.19,28.422 L12.555,28.422 L12.555,29.445 L13.578,29.445 L13.578,30.811 Z M11.19,25.453 L12.555,25.453 L12.555,22.484 L11.19,22.484 L11.19,25.453 Z M11.19,19.516 L12.555,19.516 L12.555,16.547 L11.19,16.547 L11.19,19.516 Z M21,0 C9.403,0 0,9.402 0,21 C0,32.598 9.403,42 21,42 C32.598,42 42,32.598 42,21 C42,9.402 32.598,0 21,0 L21,0 Z"/>
  </g>
</svg>
