<svg xmlns="http://www.w3.org/2000/svg" viewBox="0 0 42 42">
  <g fill="none" fill-rule="evenodd">
    <rect width="42" height="42" fill="none"/>
    <g fill="#929BA5" transform="translate(11 8)">
      <path d="M14.1957.0005L14.1957 3.2685 14.1957 4.8295 14.1957 6.7805 12.2197 6.7805 12.2197 10.6595 9.9997 10.6595 9.9997 24.3905 19.3527 24.3905 19.3527 10.6595 17.4877 10.6595 17.4877 6.7805 15.4627 6.7805 15.4627 3.2685 14.8297 3.2685 14.8297.0005 14.1957.0005zM15.2777 13.9515L17.4547 13.9515 17.4547 12.1955 15.2777 12.1955 15.2777 13.9515zM12.0497 13.9515L14.2267 13.9515 14.2267 12.1955 12.0497 12.1955 12.0497 13.9515zM15.2777 17.8295L17.4547 17.8295 17.4547 16.0735 15.2777 16.0735 15.2777 17.8295zM12.0497 17.8295L14.2267 17.8295 14.2267 16.0735 12.0497 16.0735 12.0497 17.8295zM15.2777 21.8535L17.4547 21.8535 17.4547 20.0975 15.2777 20.0975 15.2777 21.8535zM12.0497 21.8535L14.2267 21.8535 14.2267 20.0975 12.0497 20.0975 12.0497 21.8535zM0 24.3905L9.561 24.3905 9.561.8785 0 .8785 0 24.3905zM5.57 6.0495L7.747 6.0495 7.747 4.2925 5.57 4.2925 5.57 6.0495zM1.756 6.0495L3.934 6.0495 3.934 4.2925 1.756 4.2925 1.756 6.0495zM3.805 10.0735L5.982 10.0735 5.982 8.3175 3.805 8.3175 3.805 10.0735zM5.57 13.9515L7.747 13.9515 7.747 12.1955 5.57 12.1955 5.57 13.9515zM1.756 13.9515L3.934 13.9515 3.934 12.1955 1.756 12.1955 1.756 13.9515zM3.805 17.8295L5.982 17.8295 5.982 16.0735 3.805 16.0735 3.805 17.8295zM5.57 21.8535L7.747 21.8535 7.747 20.0975 5.57 20.0975 5.57 21.8535zM1.756 21.8535L3.934 21.8535 3.934 20.0975 1.756 20.0975 1.756 21.8535z"/>
    </g>
  </g>
</svg>
