<?xml version="1.0" encoding="utf-8"?>
<!-- Generator: Adobe Illustrator 22.0.1, SVG Export Plug-In . SVG Version: 6.00 Build 0)  -->
<svg version="1.1" id="Layer_1" xmlns="http://www.w3.org/2000/svg" xmlns:xlink="http://www.w3.org/1999/xlink" x="0px" y="0px"
	 viewBox="0 0 42 42" style="enable-background:new 0 0 42 42;" xml:space="preserve">
<style type="text/css">
	.st0{fill:#66BBE4;}
</style>
<g>
	<path class="st0" d="M27.9,14.4c0-0.5-0.4-0.9-0.9-0.9H15.5c-0.5,0-0.9,0.4-0.9,0.9v13.7c0,0.5,0.4,0.9,0.9,0.9H27
		c0.5,0,0.9-0.4,0.9-0.9h-0.1V14.4z M16.5,16.9l1.4,1.5l3-3.4l0.7,0.5l-3.9,4.2l-2-2.2L16.5,16.9z M26.6,26.1H17
		c-0.3,0-0.6-0.3-0.6-0.6s0.3-0.6,0.6-0.6h9.5c0.3,0,0.6,0.2,0.6,0.6C27.2,25.8,26.9,26.1,26.6,26.1z M26.6,23.1H17
		c-0.3,0-0.6-0.3-0.6-0.6s0.3-0.6,0.6-0.6h9.5c0.3,0,0.6,0.3,0.6,0.6S26.9,23.1,26.6,23.1z M26.5,19.5H21c-0.4,0-0.7-0.3-0.7-0.6
		s0.3-0.6,0.7-0.6h5.5c0.4,0,0.7,0.3,0.7,0.6S26.9,19.5,26.5,19.5z"/>
	<path class="st0" d="M21.2,1.3c-11,0-20,9-20,20c0,11,9,20,20,20c11,0,20-9,20-20C41.2,10.3,32.3,1.3,21.2,1.3z M29.8,28.2
		c0,1.6-1.2,2.8-2.8,2.8H15.5c-1.6,0-2.8-1.2-2.8-2.8V14.4c0-1.6,1.2-2.8,2.8-2.8H27c1.6,0,2.9,1.2,2.8,2.8V28.2z"/>
</g>
</svg>
