<svg xmlns="http://www.w3.org/2000/svg" viewBox="0 0 40 40">
  <g fill="none" fill-rule="evenodd">
    <rect width="42" height="42"/>
    <path fill="#7EC35C" d="M13.564069,16.2814483 L18.9528966,10.9137241 C19.4556552,10.4010345 20.1446207,10.3886207 20.63,10.8727586 L26.0498621,16.2702759 C26.5042069,16.7233793 26.5042069,17.4582759 26.0498621,17.9101379 C25.5967586,18.3644828 24.8618621,18.3644828 24.41,17.9101379 L20.9527586,14.4504138 L20.9527586,22.5330345 C20.9527586,23.1748276 20.4251724,23.6875172 19.7833793,23.6875172 C19.1428276,23.6875172 18.6748276,23.2294483 18.6748276,22.5876552 L18.6748276,14.5422759 L15.2064138,17.9225517 C14.752069,18.3756552 14.0184138,18.3756552 13.564069,17.9225517 C13.1122069,17.4694483 13.1122069,16.7345517 13.564069,16.2814483 M19.8082069,27.2974483 C19.1912414,27.2974483 18.6922069,26.7971724 18.6922069,26.1814483 C18.6922069,25.5657241 19.1912414,25.0654483 19.8082069,25.0654483 C20.423931,25.0654483 20.9229655,25.5657241 20.9229655,26.1814483 C20.9229655,26.7971724 20.423931,27.2974483 19.8082069,27.2974483 M19.8082069,37.6157931 C29.6424138,37.6157931 37.6157931,29.6424138 37.6157931,19.8069655 C37.6157931,9.97275862 29.6424138,2.00062069 19.8082069,2.00062069 C9.97275862,2.00062069 1.99937931,9.97275862 1.99937931,19.8069655 C1.99937931,29.6424138 9.97275862,37.6157931 19.8082069,37.6157931"/>
  </g>
</svg>
