<svg xmlns="http://www.w3.org/2000/svg" xmlns:xlink="http://www.w3.org/1999/xlink" viewBox="0 0 42 42">
  <defs>
    <polygon id="a" points="32.327 14.219 32.327 28.438 0 28.438 0 0 32.327 0 32.327 14.219"/>
  </defs>
  <g fill="none" fill-rule="evenodd">
    <rect width="42" height="42" fill="none"/>
    <g transform="translate(5 6)">
      <mask id="b" fill="white">
        <use xlink:href="#a"/>
      </mask>
      <path fill="#929BA5" d="M22.967 15.9875L30.835 15.9875 30.835 1.9695 22.967 1.9695 22.967 15.9875zM26.901 18.2025C26.476 18.2025 26.132 17.8595 26.132 17.4345 26.132 17.0095 26.476 16.6655 26.901 16.6655 27.325 16.6655 27.669 17.0095 27.669 17.4345 27.669 17.8595 27.325 18.2025 26.901 18.2025L26.901 18.2025zM31.395.5235L22.407.5235C21.892.5235 21.475.9405 21.475 1.4555L21.475 18.4345C21.475 18.9485 21.892 19.3665 22.407 19.3665L31.395 19.3665C31.91 19.3665 32.327 18.9485 32.327 18.4345L32.327 1.4555C32.327.9405 31.91.5235 31.395.5235L31.395.5235zM10.6076 12.6389C14.0976 12.6389 16.9266 9.8089 16.9266 6.3199 16.9266 2.8289 14.0976-.0001 10.6076-.0001 7.1176-.0001 4.2886 2.8289 4.2886 6.3199 4.2886 9.8089 7.1176 12.6389 10.6076 12.6389M10.6076 13.5417C5.0796 13.5417.5436 17.7717.0496 23.1707L-.0004 23.1707-.0004 28.4377 21.2156 28.4377 21.2156 23.1707 21.1656 23.1707C20.6716 17.7717 16.1356 13.5417 10.6076 13.5417" mask="url(#b)"/>
    </g>
  </g>
</svg>
