<svg xmlns="http://www.w3.org/2000/svg" viewBox="0 0 42 42">
  <g fill="none" fill-rule="evenodd">
    <rect width="42" height="42" fill="none"/>
    <path fill="#C2C5C6" d="M33.8454428,27.2765401 C33.8454428,28.1497389 33.1448038,28.8983695 32.2521749,28.8348641 L28.3238595,28.8348641 L13.9956687,28.8348641 L10.0673533,28.8348641 C9.17472437,28.8983695 8.47408544,28.1497389 8.47408544,27.2765401 L8.47408544,15.2410522 L18.544835,24.0341028 C19.3726362,24.5946597 20.2652651,24.9073015 21.2214752,24.9073015 C22.1776853,24.9073015 23.1338953,24.5946597 24.0252776,23.9718187 L33.840456,15.3033363 L33.840456,19.2992893 L33.8454428,19.2992893 L33.8454428,20.3410215 L33.8454428,27.2765401 Z M31.3558059,13.1832342 L22.0492763,21.4145065 C21.4757996,21.7894324 20.965904,21.7894324 20.5195896,21.4767906 L11.0235634,13.1832342 L31.3558059,13.1832342 Z M37.1554007,14.6340875 L37.1554007,13.1832342 C37.2189818,11.1877002 36.6455051,10.0030809 33.9688649,10.0030809 L8.47408544,10.0030809 C6.18017863,9.94079679 5.16038745,10.8139956 5.16038745,13.4323706 L5.16038745,29.20979 C5.16038745,31.828165 6.81723645,32.0162386 8.09135208,32.0785227 L13.9956687,32.0785227 L28.3238595,32.0785227 L34.2281761,32.0785227 C35.5022918,32.0162386 37.1603875,31.828165 37.1603875,29.20979 L37.1603875,14.6340875 L37.1554007,14.6340875 Z"/>
  </g>
</svg>
