<svg xmlns="http://www.w3.org/2000/svg" xmlns:xlink="http://www.w3.org/1999/xlink" viewBox="0 0 42 42">
  <defs>
    <polygon id="a" points="19.612 22.513 0 22.513 0 0 19.612 0 39.225 0 39.225 22.513"/>
  </defs>
  <g fill="none" fill-rule="evenodd">
    <rect width="42" height="42" fill="none"/>
    <g transform="translate(1 9)">
      <mask id="b" fill="white">
        <use xlink:href="#a"/>
      </mask>
      <path fill="#57C7E5" d="M32.4248,15.6904 L29.5068,15.6904 C29.2848,17.4694 27.8548,18.8424 26.1208,18.8424 C26.0488,18.8424 25.9778,18.8364 25.9068,18.8314 L25.9068,18.8424 L22.4878,18.8424 L22.4878,11.5774 L25.9068,11.5774 L25.9068,11.5884 C25.9778,11.5844 26.0488,11.5774 26.1208,11.5774 C27.8548,11.5774 29.2838,12.9504 29.5058,14.7294 L32.4248,14.7294 L32.4248,15.6904 Z M19.3918,16.2514 C19.7168,16.2514 19.9798,16.5144 19.9798,16.8384 C19.9798,17.1644 19.7168,17.4264 19.3918,17.4264 L17.3078,17.4264 L17.3078,18.8424 L13.8888,18.8424 L13.8888,18.8314 C13.8178,18.8364 13.7468,18.8424 13.6748,18.8424 C11.9398,18.8424 10.5108,17.4694 10.2888,15.6904 L7.3708,15.6904 L7.3708,14.7294 L10.2898,14.7294 C10.5108,12.9504 11.9408,11.5774 13.6748,11.5774 C13.7468,11.5774 13.8178,11.5844 13.8888,11.5884 L13.8888,11.5774 L17.3078,11.5774 L17.3078,12.8334 L19.3918,12.8334 C19.7168,12.8334 19.9798,13.0954 19.9798,13.4204 C19.9798,13.7454 19.7168,14.0074 19.3918,14.0074 L17.3078,14.0074 L17.3078,16.2514 L19.3918,16.2514 Z M31.3648,7.2244 C31.3078,8.4644 30.6258,9.4914 29.7038,9.8074 C30.3538,9.3054 30.7878,8.4074 30.7878,7.3784 C30.7878,7.0004 30.7318,6.6544 30.6298,6.3314 C29.2908,2.7564 25.8518,0.0004 20.1488,0.0004 C14.0738,0.0004 9.1398,4.6954 9.0228,9.7804 C8.5328,9.6944 8.0248,9.6484 7.5048,9.6484 C3.3598,9.6484 -0.0002,12.5284 -0.0002,16.0804 C-0.0002,19.6334 2.4118,22.4614 6.5578,22.4614 L30.7568,22.5134 L30.7748,22.5134 L30.7938,22.5134 L31.0478,22.5134 L31.0488,22.5064 C36.3558,22.4274 39.2248,20.0954 39.2248,15.2934 C39.2248,11.0094 35.7538,7.5174 31.3648,7.2244 L31.3648,7.2244 Z" mask="url(#b)"/>
    </g>
  </g>
</svg>
