<svg xmlns="http://www.w3.org/2000/svg" xmlns:xlink="http://www.w3.org/1999/xlink" viewBox="0 0 42 42">
  <defs>
    <polygon id="a" points="0 15.946 40.829 15.946 40.829 0 0 0"/>
  </defs>
  <g fill="none" fill-rule="evenodd">
    <rect width="42" height="42" fill="none"/>
    <g transform="translate(1 13)">
      <path fill="#929BA5" d="M29.9176,5.8347 C29.4326,6.3547 29.1906,7.0837 29.1906,8.0227 C29.1906,8.9107 29.4316,9.6107 29.9136,10.1227 C30.3966,10.6347 31.0116,10.8907 31.7616,10.8907 C32.3666,10.8907 32.8666,10.7417 33.2606,10.4417 C33.6546,10.1437 33.9366,9.6857 34.1056,9.0697 L33.0006,8.7197 C32.9056,9.1327 32.7496,9.4357 32.5316,9.6277 C32.3136,9.8207 32.0526,9.9167 31.7496,9.9167 C31.3396,9.9167 31.0056,9.7657 30.7496,9.4627 C30.4926,9.1597 30.3646,8.6517 30.3646,7.9387 C30.3646,7.2657 30.4946,6.7797 30.7546,6.4797 C31.0156,6.1797 31.3546,6.0287 31.7726,6.0287 C32.0756,6.0287 32.3326,6.1137 32.5446,6.2837 C32.7566,6.4527 32.8956,6.6837 32.9626,6.9767 L34.0906,6.7067 C33.9616,6.2547 33.7696,5.9087 33.5126,5.6677 C33.0816,5.2597 32.5206,5.0557 31.8306,5.0557 C31.0406,5.0557 30.4026,5.3147 29.9176,5.8347 Z M27.5826,11.8207 L27.5826,3.9987 L35.7006,3.9987 L35.7006,11.8207 L27.5826,11.8207 Z"/>
      <mask id="b" fill="white">
        <use xlink:href="#a"/>
      </mask>
      <path fill="#929BA5" d="M36.898,5.8202 L37.95,5.8202 L37.95,4.7352 L36.898,4.7352 L36.898,5.8202 Z M36.898,8.5262 L37.95,8.5262 L37.95,7.4412 L36.898,7.4412 L36.898,8.5262 Z M36.898,11.1452 L37.95,11.1452 L37.95,10.0602 L36.898,10.0602 L36.898,11.1452 Z M36.885,13.1832 L34.775,13.1832 L34.775,14.2072 L33.69,14.2072 L33.69,13.1832 L32.069,13.1832 L32.069,14.2072 L30.984,14.2072 L30.984,13.1832 L29.451,13.1832 L29.451,14.2072 L28.365,14.2072 L28.365,13.1832 L26.399,13.1832 L26.399,11.1452 L25.346,11.1452 L25.346,10.0602 L26.399,10.0602 L26.399,8.5262 L25.346,8.5262 L25.346,7.4412 L26.399,7.4412 L26.399,5.8202 L25.346,5.8202 L25.346,4.7352 L26.399,4.7352 L26.399,2.6972 L28.365,2.6972 L28.365,1.7392 L29.451,1.7392 L29.451,2.6972 L30.984,2.6972 L30.984,1.7392 L32.069,1.7392 L32.069,2.6972 L33.69,2.6972 L33.69,1.7392 L34.775,1.7392 L34.775,2.6972 L36.885,2.6972 L36.885,13.1832 Z M14.54,6.8052 L3.679,6.8052 C3.226,6.8052 2.856,6.4352 2.856,5.9822 C2.856,5.5292 3.226,5.1592 3.679,5.1592 L14.54,5.1592 C14.993,5.1592 15.363,5.5292 15.363,5.9822 C15.363,6.4352 14.993,6.8052 14.54,6.8052 L14.54,6.8052 Z M14.54,10.7952 L3.679,10.7952 C3.226,10.7952 2.856,10.4252 2.856,9.9732 C2.856,9.5202 3.226,9.1502 3.679,9.1502 L14.54,9.1502 C14.993,9.1502 15.363,9.5202 15.363,9.9732 C15.363,10.4252 14.993,10.7952 14.54,10.7952 L14.54,10.7952 Z M37.744,0.0572 L11.743,0.0572 L11.743,0.0002 L3.655,0.0002 C1.636,0.0002 0,1.6372 0,3.6562 L0,12.2902 C0,14.3092 1.636,15.9462 3.655,15.9462 L37.173,15.9462 C39.191,15.9462 40.829,14.3092 40.829,12.2902 L40.829,3.6562 C40.829,1.8332 39.49,0.3342 37.744,0.0572 L37.744,0.0572 Z" mask="url(#b)"/>
    </g>
  </g>
</svg>
