<svg xmlns="http://www.w3.org/2000/svg" viewBox="0 0 42 42">
  <g fill="none" fill-rule="evenodd">
    <rect width="24" height="24" fill="none"/>
    <path fill="#B5C1C6" d="M21.4992289,30 C16.8046811,30 13,26.1933115 13,21.499248 C13,16.8051845 16.8046811,13 21.4992289,13 C26.1937766,13 30,16.8051845 30,21.499248 C30,26.1933115 26.1937766,30 21.4992289,30 L21.4992289,30 Z M33.3045,19.6275 C33.207,18.9015 33.06,18.1935 32.85,17.511 L36.531,11.868 L33.5235,8.0025 L27.3345,10.428 C26.739,10.068 26.115,9.7575 25.461,9.501 L23.4435,3 L18.621,3 L16.602,9.501 C15.9615,9.7515 15.348,10.056 14.7645,10.407 L8.5215,7.9605 L5.514,11.826 L9.2175,17.505 C9.015,18.156 8.874,18.834 8.775,19.527 L3,23.0175 L4.0725,27.837 L10.7085,28.4085 C11.085,28.989 11.514,29.5275 11.9775,30.036 L11.037,36.831 L15.3825,38.976 L19.9425,34.026 C20.301,34.0575 20.664,34.0815 21.0315,34.0815 C21.3615,34.0815 21.6825,34.0575 22.005,34.0335 L26.5815,39 L30.927,36.8535 L29.9985,30.135 C30.483,29.6145 30.933,29.0565 31.326,28.4595 L37.926,27.891 L39,23.07 L33.3045,19.6275 Z"/>
  </g>
</svg>
