<svg xmlns="http://www.w3.org/2000/svg" viewBox="0 0 42 42">
  <g fill="none" fill-rule="evenodd">
    <rect width="42" height="42" fill="none"/>
    <path fill="#EE5A68" d="M23.84,13.249 L23.259,23.423 C23.259,24.71 22.216,25.753 20.929,25.753 C19.643,25.753 18.6,24.71 18.6,23.423 L18.019,13.249 C18.007,13.144 18,13.037 18,12.929 C18,11.311 19.312,10 20.929,10 C22.547,10 23.858,11.311 23.858,12.929 C23.858,13.037 23.851,13.144 23.84,13.249 M20.929,32.692 C19.578,32.692 18.483,31.597 18.483,30.245 C18.483,28.894 19.578,27.799 20.929,27.799 C22.281,27.799 23.376,28.894 23.376,30.245 C23.376,31.597 22.281,32.692 20.929,32.692"/>
  </g>
</svg>
