<svg xmlns="http://www.w3.org/2000/svg" xmlns:xlink="http://www.w3.org/1999/xlink" viewBox="0 0 42 42">
  <defs>
    <polygon id="a" points="0 36 0 0 36 0 36 36"/>
  </defs>
  <g fill="none" fill-rule="evenodd">
    <rect width="42" height="42" fill="none"/>
    <g transform="translate(3 3)">
      <mask id="b" fill="white">
        <use xlink:href="#a"/>
      </mask>
      <path fill="#929BA5" d="M24.3366667,24.2326667 L24.336,24.2366667 L24.1953333,24.2366667 L24.1846667,24.2366667 L24.1746667,24.2366667 L10.7673333,24.2073333 C8.47066667,24.2073333 7.13466667,22.6413333 7.13466667,20.6726667 C7.13466667,18.7053333 8.996,17.1093333 11.292,17.1093333 C11.5806667,17.1093333 11.862,17.1346667 12.1333333,17.1826667 C12.198,14.3653333 14.932,11.764 18.2973333,11.764 C21.4573333,11.764 23.3626667,13.2906667 24.104,15.272 C24.1606667,15.45 24.192,15.642 24.192,15.852 C24.192,16.422 23.9513333,16.9193333 23.5913333,17.1973333 C24.102,17.0226667 24.4793333,16.4533333 24.5113333,15.7666667 C26.9433333,15.9286667 28.866,17.8633333 28.866,20.2366667 C28.866,22.8973333 27.2766667,24.1893333 24.3366667,24.2326667 M18,0 C8.05866667,0 0,8.05933333 0,18 C0,27.9413333 8.05866667,36 18,36 C27.9413333,36 36,27.9413333 36,18 C36,8.05933333 27.9413333,0 18,0" mask="url(#b)"/>
    </g>
  </g>
</svg>
