<svg xmlns="http://www.w3.org/2000/svg" viewBox="0 0 42 42">
  <g fill="none" fill-rule="evenodd">
    <rect width="42" height="42" fill="none"/>
    <path fill="#E43A40" d="M22.2627,15.759 L21.9197,21.771 C21.9197,22.531 21.3037,23.147 20.5427,23.147 C19.7827,23.147 19.1667,22.531 19.1667,21.771 L18.8237,15.759 C18.8167,15.697 18.8127,15.634 18.8127,15.57 C18.8127,14.614 19.5867,13.839 20.5427,13.839 C21.4987,13.839 22.2737,14.614 22.2737,15.57 C22.2737,15.634 22.2697,15.697 22.2627,15.759 M20.5427,27.247 C19.7447,27.247 19.0977,26.6 19.0977,25.801 C19.0977,25.003 19.7447,24.356 20.5427,24.356 C21.3417,24.356 21.9887,25.003 21.9887,25.801 C21.9887,26.6 21.3417,27.247 20.5427,27.247"/>
    <path stroke="#EE5A68" d="M20.543,8 C13.616,8 8,13.616 8,20.543 C8,27.471 13.616,33.086 20.543,33.086 C27.47,33.086 33.086,27.471 33.086,20.543 C33.086,13.616 27.47,8 20.543,8 Z"/>
  </g>
</svg>
