<svg xmlns="http://www.w3.org/2000/svg" viewBox="0 0 40 40">
  <g fill="none" fill-rule="evenodd">
    <rect width="42" height="42" fill="none"/>
    <path fill="#FFC43A" d="M25.7342273,22.4534818 C24.6877727,22.4534818 23.8401364,21.6058455 23.8401364,20.5593909 C23.8401364,19.5129364 24.6877727,18.6653 25.7342273,18.6653 C26.7798636,18.6653 27.6283182,19.5129364 27.6283182,20.5593909 C27.6283182,21.6058455 26.7798636,22.4534818 25.7342273,22.4534818 M19.9995909,22.4534818 C18.9539545,22.4534818 18.1055,21.6058455 18.1055,20.5593909 C18.1055,19.5129364 18.9539545,18.6653 19.9995909,18.6653 C21.0460455,18.6653 21.8936818,19.5129364 21.8936818,20.5593909 C21.8936818,21.6058455 21.0460455,22.4534818 19.9995909,22.4534818 M14.2657727,22.4534818 C13.2193182,22.4534818 12.3716818,21.6058455 12.3716818,20.5593909 C12.3716818,19.5129364 13.2193182,18.6653 14.2657727,18.6653 C15.3114091,18.6653 16.1598636,19.5129364 16.1598636,20.5593909 C16.1598636,21.6058455 15.3114091,22.4534818 14.2657727,22.4534818 M19.9995909,1.99975455 C10.0586818,1.99975455 1.99959091,10.0588455 1.99959091,19.9997545 C1.99959091,29.9414818 10.0586818,37.9997545 19.9995909,37.9997545 C29.9413182,37.9997545 37.9995909,29.9414818 37.9995909,19.9997545 C37.9995909,10.0588455 29.9413182,1.99975455 19.9995909,1.99975455"/>
  </g>
</svg>
