<?xml version="1.0" encoding="utf-8"?>
<!-- Generator: Adobe Illustrator 22.0.1, SVG Export Plug-In . SVG Version: 6.00 Build 0)  -->
<svg version="1.1" id="Layer_1" xmlns="http://www.w3.org/2000/svg" xmlns:xlink="http://www.w3.org/1999/xlink" x="0px" y="0px"
	 viewBox="0 0 42 42" style="enable-background:new 0 0 42 42;" xml:space="preserve">
<style type="text/css">
	.st0{fill:#66BBE4;}
</style>
<g>
	<path class="st0" d="M28.2,13.9H14v4.3h14.2V13.9z M20.8,16.1c0,0.2-0.2,0.4-0.4,0.4h-4.9c-0.2,0-0.4-0.2-0.4-0.4
		c0-0.2,0.2-0.4,0.4-0.4h4.9C20.7,15.7,20.9,15.8,20.8,16.1z"/>
	<path class="st0" d="M28.2,23.8H14v4.3h14.2V23.8z M20.4,26.3h-4.9c-0.2,0-0.4-0.2-0.4-0.4s0.2-0.4,0.4-0.4h4.9
		c0.2,0,0.4,0.2,0.4,0.4S20.7,26.3,20.4,26.3z"/>
	<path class="st0" d="M28.2,18.9H14v4h14.2V18.9z M20.4,21.4h-4.9c-0.2,0-0.4-0.2-0.4-0.4c0-0.2,0.2-0.4,0.4-0.4h4.9
		c0.2,0,0.4,0.2,0.4,0.4S20.7,21.4,20.4,21.4z"/>
	<path class="st0" d="M21.1,0.9c-11,0-20,9-20,20c0,11,9,20,20,20s20-9,20-20C41.1,9.9,32.2,0.9,21.1,0.9z M29,18.1v0.8v4v0.8v5
		H13.3V13.1v-0.1H29V18.1z"/>
</g>
</svg>
