<svg xmlns="http://www.w3.org/2000/svg" viewBox="0 0 42 42">
  <g fill="none" fill-rule="evenodd">
    <rect width="42" height="42" fill="none"/>
    <path fill="#FFC43A" d="M22.298,22.482 C22.298,23.11 21.787,23.617 21.158,23.617 C20.529,23.617 20.018,23.11 20.018,22.482 L20.018,17.943 C20.018,17.317 20.529,16.808 21.158,16.808 C21.787,16.808 22.298,17.317 22.298,17.943 L22.298,22.482 Z M21.158,28.534 C20.319,28.534 19.638,27.857 19.638,27.022 C19.638,26.186 20.319,25.508 21.158,25.508 C21.997,25.508 22.678,26.186 22.678,27.022 C22.678,27.857 21.997,28.534 21.158,28.534 L21.158,28.534 Z M33.112,28.656 L33.118,28.653 L33.037,28.518 C33.029,28.505 33.021,28.492 33.013,28.478 L22.665,10.878 L22.663,10.879 C22.364,10.357 21.807,10 21.158,10 C20.431,10 19.81,10.445 19.552,11.076 L9.372,28.395 C9.142,28.688 9,29.053 9,29.453 C9,30.409 9.777,31.182 10.737,31.182 L31.579,31.182 C32.538,31.182 33.317,30.409 33.317,29.453 C33.317,29.164 33.238,28.896 33.112,28.656 L33.112,28.656 Z"/>
  </g>
</svg>
