<?xml version="1.0" encoding="utf-8"?>
<!-- Generator: Adobe Illustrator 22.0.1, SVG Export Plug-In . SVG Version: 6.00 Build 0)  -->
<svg version="1.1" id="Layer_1" xmlns="http://www.w3.org/2000/svg" xmlns:xlink="http://www.w3.org/1999/xlink" x="0px" y="0px"
	 viewBox="0 0 42 42" style="enable-background:new 0 0 42 42;" xml:space="preserve">
<style type="text/css">
	.st0{fill:#66BBE4;}
</style>
<g>
	<ellipse transform="matrix(0.9732 -0.2298 0.2298 0.9732 -4.3185 5.4567)" class="st0" cx="21.3" cy="21.3" rx="4.6" ry="4.6"/>
	<path class="st0" d="M21,1C10,1,1,10,1,21s9,20,20,20s20-9,20-20S32,1,21,1z M30.2,24.7L26.6,25c-0.2,0.3-0.4,0.7-0.7,0.9l0.5,3.7
		l-2.3,1.1l-2.5-2.7c-0.2,0-0.4,0-0.5,0c-0.2,0-0.4-0.1-0.6-0.1l-2.5,2.7l-2.3-1.1l0.5-3.7c-0.3-0.3-0.5-0.5-0.7-0.9l-3.6-0.3
		l-0.6-2.6l3.2-1.9c0.1-0.4,0.1-0.7,0.2-1.1l-2-3.1l1.6-2.1l3.4,1.3c0.3-0.2,0.7-0.3,1-0.5l1.1-3.6h2.6l1.1,3.6
		c0.4,0.1,0.7,0.3,1,0.5l3.4-1.3l1.6,2.1l-2,3.1c0.2,0.4,0.2,0.8,0.3,1.1l3.1,1.9L30.2,24.7z"/>
</g>
</svg>
