<svg xmlns="http://www.w3.org/2000/svg" xmlns:xlink="http://www.w3.org/1999/xlink" viewBox="0 0 42 42">
  <defs>
    <polygon id="a" points="35.615 17.807 35.615 0 0 0 0 17.807 0 35.615 35.615 35.615"/>
  </defs>
  <g fill="none" fill-rule="evenodd">
    <rect width="42" height="42" fill="none"/>
    <g transform="translate(3 3)">
      <mask id="b" fill="white">
        <use xlink:href="#a"/>
      </mask>
      <path fill="#57C7E5" d="M17.8075862,11.580331 C16.2571034,11.580331 14.9995862,10.3228138 14.9995862,8.77233103 C14.9995862,7.22184828 16.2571034,5.96433103 17.8075862,5.96433103 C19.3593103,5.96433103 20.6155862,7.22184828 20.6155862,8.77233103 C20.6155862,10.3228138 19.3593103,11.580331 17.8075862,11.580331 L17.8075862,11.580331 Z M20.6155862,26.8430897 C20.6155862,28.3873655 19.3518621,29.6510897 17.8075862,29.6510897 C16.2633103,29.6510897 14.9995862,28.3873655 14.9995862,26.8430897 L14.9995862,16.8301241 C14.9995862,15.2858483 16.2633103,14.0221241 17.8075862,14.0221241 C19.3518621,14.0221241 20.6155862,15.2858483 20.6155862,16.8301241 L20.6155862,26.8430897 Z M17.8075862,-0.000496551724 C7.97213793,-0.000496551724 0,7.97288276 0,17.808331 C0,27.6425379 7.97213793,35.6146759 17.8075862,35.6146759 C27.6417931,35.6146759 35.6151724,27.6425379 35.6151724,17.808331 C35.6151724,7.97288276 27.6417931,-0.000496551724 17.8075862,-0.000496551724 L17.8075862,-0.000496551724 Z" mask="url(#b)"/>
    </g>
  </g>
</svg>
