<svg xmlns="http://www.w3.org/2000/svg" viewBox="0 0 42 42">
  <g fill="none" fill-rule="evenodd">
    <rect width="42" height="42" fill="none"/>
    <path fill="#929BA5" d="M20.3958191,26.8205029 C21.6833723,26.8205029 22.7266702,27.8612457 22.7266702,29.1456457 C22.7266702,30.4293029 21.6833723,31.4707886 20.3958191,31.4707886 C19.108266,31.4707886 18.0649681,30.4293029 18.0649681,29.1456457 C18.0649681,27.8612457 19.108266,26.8205029 20.3958191,26.8205029 Z M5.0283617,17.13996 C4.50931915,17.13996 3.9902766,16.94236 3.59410638,16.54716 C2.80176596,15.75676 2.80176596,14.4760743 3.59410638,13.6849314 C8.08229787,9.20847429 14.0494255,6.74293143 20.3963404,6.74293143 C26.7425106,6.74293143 32.7088936,9.20773143 37.1970851,13.6834457 C37.9894255,14.4738457 37.9894255,15.7552743 37.1970851,16.5456743 C36.4054894,17.3360743 35.1209149,17.3360743 34.3285745,16.5456743 C30.6074043,12.8336171 25.659,10.7900171 20.3963404,10.7900171 C15.1329362,10.7900171 10.1845319,12.83436 6.4633617,16.54716 C6.06719149,16.94236 5.54740426,17.13996 5.0283617,17.13996 Z M9.94630851,22.0452686 C9.42726596,22.0452686 8.9082234,21.8476686 8.51130851,21.4524686 C7.71971277,20.6620686 7.71971277,19.3813829 8.51130851,18.5909829 C11.6866277,15.4241829 15.906734,13.6806971 20.3964149,13.6806971 C24.8853511,13.6806971 29.1054574,15.4241829 32.2800319,18.59024 C33.0723723,19.38064 33.0723723,20.6613257 32.2800319,21.4524686 C31.4884362,22.2421257 30.2038617,22.2421257 29.4115213,21.4524686 C27.0032234,19.0500686 23.8018404,17.7277829 20.3964149,17.7277829 C16.9902447,17.7277829 13.7888617,19.0508114 11.3805638,21.4524686 C10.9843936,21.8476686 10.4653511,22.0452686 9.94630851,22.0452686 Z M14.6707128,26.7582514 C14.1516702,26.7582514 13.6326277,26.5606514 13.2364574,26.1654514 C12.444117,25.3757943 12.444117,24.0943657 13.2364574,23.3039657 C15.1487979,21.3963086 17.691883,20.3451657 20.3965638,20.3451657 C23.1005,20.3451657 25.6435851,21.3955657 27.5559255,23.3032229 C28.348266,24.09288 28.348266,25.3743086 27.5566702,26.1647086 C26.7643298,26.9551086 25.4805,26.9551086 24.6881596,26.1647086 C23.5420957,25.0214514 22.0169894,24.3922514 20.3965638,24.3922514 C18.7753936,24.3922514 17.2510319,25.0214514 16.1049681,26.1654514 C15.7087979,26.5606514 15.1897553,26.7582514 14.6707128,26.7582514 Z"/>
  </g>
</svg>
