<svg width="42" height="42" xmlns="http://www.w3.org/2000/svg" xmlns:svg="http://www.w3.org/2000/svg">
 <g>
  <title>Layer 1</title>
  <ellipse stroke="#ffffff" ry="12.14703" rx="11.1459" id="svg_4" cy="20.07001" cx="20.39933" stroke-width="5" fill="#ffffff"/>
  <g id="svg_1" fill-rule="evenodd" fill="none">
   <rect id="svg_2" fill="none" height="42" width="42"/>
   <path id="svg_3" d="m22.79259,14.28683l-0.4486,7.862c0,0.99343 -0.80639,1.79982 -1.79981,1.79982c-0.99478,0 -1.80117,-0.80639 -1.80117,-1.79982l-0.4486,-7.862c-0.00813,-0.08131 -0.01356,-0.16399 -0.01356,-0.24666c0,-1.25093 1.0124,-2.26332 2.26333,-2.26332c1.24957,0 2.26197,1.01239 2.26197,2.26332c0,0.08267 -0.00407,0.16535 -0.01356,0.24666m-2.24841,15.02332c-1.04493,0 -1.89062,-0.84569 -1.89062,-1.89062c0,-1.04357 0.84569,-1.88926 1.89062,-1.88926c1.04357,0 1.88926,0.84569 1.88926,1.88926c0,1.04493 -0.84569,1.89062 -1.88926,1.89062m0,-25.76665c-9.38941,0 -17.00068,7.61127 -17.00068,16.99932c0,9.38941 7.61127,17.00068 17.00068,17.00068c9.38805,0 16.99932,-7.61127 16.99932,-17.00068c0,-9.38805 -7.61127,-16.99932 -16.99932,-16.99932" fill="#E93941"/>
  </g>
 </g>
</svg>