<?xml version="1.0" encoding="utf-8"?>
<!-- Generator: Adobe Illustrator 22.0.1, SVG Export Plug-In . SVG Version: 6.00 Build 0)  -->
<svg version="1.1" id="Layer_1" xmlns="http://www.w3.org/2000/svg" xmlns:xlink="http://www.w3.org/1999/xlink" x="0px" y="0px"
	 viewBox="0 0 42 42" style="enable-background:new 0 0 42 42;" xml:space="preserve">
<style type="text/css">
	.st0{fill:#66BBE4;}
</style>
<g transform="translate(3 3)">
	<path class="st0" d="M25,24.9L25,24.9h-0.1l0,0l0,0H10c-2.6,0-4-1.8-4-3.9c0-2.2,2.1-4,4.7-4c0.3,0,0.7,0,0.9,0.1
		c0.1-3.1,3.1-6,6.9-6c3.6,0,5.7,1.7,6.4,3.9c0.1,0.2,0.1,0.4,0.1,0.7c0,0.7-0.2,1.2-0.7,1.4c0.6-0.2,1-0.8,1-1.6
		c2.7,0.2,4.9,2.3,4.9,5C30.1,23.4,28.3,24.9,25,24.9 M18-2C7-2-2,7-2,18s9,20,20,20s20-9,20-20S29-2,18-2"/>
</g>
</svg>
