<svg xmlns="http://www.w3.org/2000/svg" viewBox="0 0 42 42">
  <g fill="none" fill-rule="evenodd">
    <rect width="42" height="42" fill="none"/>
    <path fill="#6B9AC1" d="M29.932,28.952 L12,28.952 L12,27.458 C12.024,27.268 12.095,27.102 12.238,26.96 C12.261,26.96 14.159,24.896 14.159,19.441 C14.159,15.171 17.005,13.416 19.353,12.87 L19.353,11.613 C19.353,10.736 20.112,10 20.99,10 C21.868,10 22.603,10.736 22.603,11.613 L22.603,12.847 C24.951,13.392 27.797,15.171 27.797,19.417 C27.797,24.872 29.695,26.936 29.719,26.96 C29.837,27.102 29.908,27.268 29.932,27.458 L29.932,28.952 Z M20.966,32.676 C19.757,32.676 18.76,31.68 18.76,30.47 C18.76,30.257 18.784,30.091 18.832,29.901 L23.101,29.901 C23.148,30.091 23.172,30.28 23.172,30.47 C23.172,31.68 22.176,32.676 20.966,32.676 L20.966,32.676 Z"/>
  </g>
</svg>
