<svg xmlns="http://www.w3.org/2000/svg" viewBox="0 0 42 42">
  <g fill="none" fill-rule="evenodd">
    <rect width="42" height="42" fill="none"/>
    <g transform="translate(3 3)">
      <path fill="#CF2030" d="M36,17.9837333 C36.0086667,27.9250667 27.9573333,35.9910667 18.016,35.9997333 C8.07533333,36.0090667 0.00866666667,27.9570667 1.69406589e-21,18.0164 C-0.00866666667,8.07506667 8.04266667,0.00906666667 17.984,-0.000266666667 C27.9246667,-0.00893333333 35.9913333,8.0424 36,17.9837333"/>
      <path fill="#FFFFFF" d="M24.8521811,20.8912958 C25.0760863,21.1083176 25.0767547,21.4643893 24.8528495,21.6820609 L18.8902886,24.8438221 C18.6670518,25.0614937 18.3007831,25.0614937 18.0768779,24.8444718 L12.1083016,21.6937567 C11.8843965,21.4760851 11.8843965,21.1200134 12.1076333,20.9023418 L13.6716275,20.1323691 L17.7761098,22.2993386 C18.0601686,22.5748394 18.7599557,22.8126537 19.0433462,22.5365032 L23.3329679,20.1785025 L24.8521811,20.8912958 Z M12.1016179,14.3176136 L18.0641788,11.1565022 C18.2874156,10.9388307 18.6536843,10.9381809 18.8775895,11.1558525 L24.8461658,14.3065676 C25.0700709,14.5242392 25.0707393,14.8803109 24.8468341,15.0973328 L18.8842732,18.2590939 C18.6610364,18.4774152 18.2947677,18.4774152 18.0708626,18.2597437 L12.1022863,15.1090285 C11.8783811,14.8920067 11.8777128,14.5352852 12.1016179,14.3176136 L12.1016179,14.3176136 Z M26.7871227,17.3442234 L24.7519251,16.1551517 L26.5498501,15.2019451 C26.8332405,14.9257945 26.8325721,14.474857 26.5485133,14.1993562 L18.985866,10.2065444 C18.7018072,9.93104366 18.237956,9.93104366 17.9545656,10.2071942 L10.398602,14.2136511 C10.1152116,14.4891518 10.1158799,14.9407392 10.3999387,15.2162399 L12.1992005,16.1668475 L10.2121257,17.3039379 C9.92873533,17.5800885 9.9294037,18.031026 10.2134625,18.3065268 L12.71719,19.6281508 L10.4046173,20.7977295 C10.1212269,21.07388 10.1218953,21.5254673 10.4059541,21.8003183 L17.9686014,25.7937799 C18.2526602,26.0692806 18.7165115,26.0686309 18.9999019,25.7924804 L26.5558654,21.7866732 C26.8392559,21.5105227 26.8385875,21.0595851 26.5545287,20.7840844 L24.0989241,19.7723988 L26.7877911,18.3461625 C27.0711815,18.0706618 27.0705131,17.6190744 26.7871227,17.3442234 L26.7871227,17.3442234 Z"/>
    </g>
  </g>
</svg>
