<svg xmlns="http://www.w3.org/2000/svg" viewBox="0 0 42 42">
  <g fill="none" fill-rule="evenodd">
    <rect width="42" height="42" fill="none"/>
    <g transform="translate(3 3)">
      <path fill="#F2732D" d="M36,17.9837333 C36.0086667,27.9250667 27.9573333,35.9910667 18.016,35.9997333 C8.07533333,36.0090667 0.00866666667,27.9570667 4.23516474e-21,18.0164 C-0.00866666667,8.07506667 8.04266667,0.00906666667 17.984,-0.000266666667 C27.9246667,-0.00893333333 35.9913333,8.0424 36,17.9837333"/>
      <path fill="#FFFFFF" d="M13.5413397 12.4940943C13.5413397 12.2218788 13.2953094 12 12.9959847 12 12.6959299 12 12.4513597 12.2232034 12.4513597 12.4947566L12.4535499 14.3737719 11 14.3744343 11.0036503 18 15 17.9973507 14.9963497 14.3711226 13.5435298 14.3724473 13.5413397 12.4940943zM11.0014609 20.1000745C11.0021914 20.874224 11.6201606 21.529178 12.4572678 21.731562L12.4594592 24 13.5500361 23.9987584 13.5478447 21.7309411C14.3834911 21.5273156 15.0007298 20.8711199 14.9999994 20.0969704L14.9985384 19 11 19.003104 11.0014609 20.1000745zM18.5413397 12.4940943C18.5413397 12.2218788 18.2953094 12 17.9959847 12 17.6959299 12 17.4513597 12.2232034 17.4513597 12.4947566L17.4535499 14.3731096 16 14.3744343 16.0036503 18 20 17.9973507 19.9963497 14.3711226 18.5435298 14.3724473 18.5413397 12.4940943zM16.0014609 20.1000745C16.0021914 20.874224 16.6201606 21.529178 17.4572678 21.731562L17.4594592 24 18.5500361 23.9987584 18.5478447 21.7309411C19.3834911 21.5273156 20.0007298 20.8711199 19.9999994 20.0969704L19.9985384 19 16 19.003104 16.0014609 20.1000745zM23.543264 14.3724482L23.5410734 12.4940956C23.5410734 12.2218802 23.2957284 11.9993391 22.9956188 12.0000015 22.6962395 12.0000015 22.4508945 12.2225425 22.4516247 12.4947579L22.4530851 14.3731105 21 14.3744352 21.003651 18 25 17.9966884 24.9970792 14.3717859 23.543264 14.3724482zM21.0014609 20.1002111C21.0021914 20.8744567 21.6208911 21.5294921 22.4572678 21.7319012L22.4594592 24 23.5500361 23.9993791 23.5478447 21.7312803C24.3842215 21.5276295 25.0007298 20.8707314 24.9999994 20.0971067L24.9985384 19 21 19.0031044 21.0014609 20.1002111z"/>
    </g>
  </g>
</svg>
