<svg xmlns="http://www.w3.org/2000/svg" viewBox="0 0 42 42">
  <g fill="none" fill-rule="evenodd">
    <rect width="42" height="42" fill="none"/>
    <g fill="#929BA5" transform="translate(10 9)">
      <polygon points="4.074 .842 18.705 .842 18.705 0 4.074 0"/>
      <path d="M2.8638,1.6486 L2.8638,21.8766 L-0.0002,21.8766 L-0.0002,22.9946 L2.8638,22.9946 L19.9158,22.9946 L22.3258,22.9946 L22.3258,21.8766 L19.9158,21.8766 L19.9158,1.6486 L2.8638,1.6486 Z M16.1258,4.8766 L18.3358,4.8766 L18.3358,3.1636 L16.1258,3.1636 L16.1258,4.8766 Z M12.2318,4.8766 L14.4418,4.8766 L14.4418,3.1636 L12.2318,3.1636 L12.2318,4.8766 Z M8.3378,4.8766 L10.5478,4.8766 L10.5478,3.1636 L8.3378,3.1636 L8.3378,4.8766 Z M4.4428,4.8766 L6.6528,4.8766 L6.6528,3.1636 L4.4428,3.1636 L4.4428,4.8766 Z M16.1258,8.1376 L18.3358,8.1376 L18.3358,6.4246 L16.1258,6.4246 L16.1258,8.1376 Z M12.2318,8.1376 L14.4418,8.1376 L14.4418,6.4246 L12.2318,6.4246 L12.2318,8.1376 Z M8.3378,8.1376 L10.5478,8.1376 L10.5478,6.4246 L8.3378,6.4246 L8.3378,8.1376 Z M4.4428,8.1376 L6.6528,8.1376 L6.6528,6.4246 L4.4428,6.4246 L4.4428,8.1376 Z M16.1258,11.3996 L18.3358,11.3996 L18.3358,9.6866 L16.1258,9.6866 L16.1258,11.3996 Z M12.2318,11.3996 L14.4418,11.3996 L14.4418,9.6866 L12.2318,9.6866 L12.2318,11.3996 Z M8.3378,11.3996 L10.5478,11.3996 L10.5478,9.6866 L8.3378,9.6866 L8.3378,11.3996 Z M4.4428,11.3996 L6.6528,11.3996 L6.6528,9.6866 L4.4428,9.6866 L4.4428,11.3996 Z M16.1258,14.6606 L18.3358,14.6606 L18.3358,12.9476 L16.1258,12.9476 L16.1258,14.6606 Z M12.2318,14.6606 L14.4418,14.6606 L14.4418,12.9476 L12.2318,12.9476 L12.2318,14.6606 Z M8.3378,14.6606 L10.5478,14.6606 L10.5478,12.9476 L8.3378,12.9476 L8.3378,14.6606 Z M4.4428,14.6606 L6.6528,14.6606 L6.6528,12.9476 L4.4428,12.9476 L4.4428,14.6606 Z M16.1258,17.9226 L18.3358,17.9226 L18.3358,16.2096 L16.1258,16.2096 L16.1258,17.9226 Z M12.2318,17.9226 L14.4418,17.9226 L14.4418,16.2096 L12.2318,16.2096 L12.2318,17.9226 Z M8.3378,17.9226 L10.5478,17.9226 L10.5478,16.2096 L8.3378,16.2096 L8.3378,17.9226 Z M4.4428,17.9226 L6.6528,17.9226 L6.6528,16.2096 L4.4428,16.2096 L4.4428,17.9226 Z M8.3378,21.8766 L14.3738,21.8766 L14.3738,19.6276 L8.3378,19.6276 L8.3378,21.8766 Z"/>
    </g>
  </g>
</svg>
