<svg xmlns="http://www.w3.org/2000/svg" viewBox="0 0 42 42">
  <g fill="none" fill-rule="evenodd">
    <path stroke="#FFFFFF" stroke-width=".5" d="M30.5423,20.8961 C30.5423,26.2231 26.2233,30.5421 20.8963,30.5421 C15.5683,30.5421 11.2503,26.2231 11.2503,20.8961 C11.2503,15.5691 15.5683,11.2501 20.8963,11.2501 C26.2233,11.2501 30.5423,15.5691 30.5423,20.8961 Z" opacity=".601"/>
    <path fill="#FFFFFF" d="M24.8186,20.3876 L21.4036,20.3876 L21.4036,16.9736 C21.4036,16.6926 21.1766,16.4656 20.8956,16.4656 C20.6146,16.4656 20.3876,16.6926 20.3876,16.9736 L20.3876,20.3876 L16.9736,20.3876 C16.6926,20.3876 16.4656,20.6146 16.4656,20.8956 C16.4656,21.1766 16.6926,21.4036 16.9736,21.4036 L20.3876,21.4036 L20.3876,24.8186 C20.3876,25.0986 20.6146,25.3266 20.8956,25.3266 C21.1766,25.3266 21.4036,25.0986 21.4036,24.8186 L21.4036,21.4036 L24.8186,21.4036 C25.0996,21.4036 25.3266,21.1766 25.3266,20.8956 C25.3266,20.6146 25.0996,20.3876 24.8186,20.3876"/>
  </g>
</svg>
