<svg width="42" height="42" xmlns="http://www.w3.org/2000/svg" xmlns:svg="http://www.w3.org/2000/svg">
 <g>
  <title>Layer 1</title>
  <ellipse stroke="#ffffff" ry="10.77465" rx="11.48796" id="svg_9" cy="21.63427" cx="20.32424" stroke-linecap="null" stroke-linejoin="null" stroke-dasharray="null" stroke-width="5" fill="#ffffff"/>
  <g id="svg_1" fill-rule="evenodd" fill="none">
   <rect id="svg_2" fill="none" height="42" width="42"/>
   <path id="svg_3" d="m20.5784,21.846c0.324,0 0.587,-0.261 0.587,-0.585l0,-2.339c0,-0.323 -0.263,-0.585 -0.587,-0.585c-0.324,0 -0.587,0.262 -0.587,0.585l0,2.339c0,0.324 0.263,0.585 0.587,0.585" fill="#E0B835"/>
   <path id="svg_4" d="m20.5784,22.8203c-0.433,0 -0.783,0.349 -0.783,0.78c0,0.43 0.35,0.78 0.783,0.78c0.432,0 0.783,-0.35 0.783,-0.78c0,-0.431 -0.351,-0.78 -0.783,-0.78" fill="#F89C00"/>
   <path id="svg_5" d="m27.85646,27.26775l-14.55727,0c-0.66952,0 -1.213,-0.53941 -1.213,-1.20758c0,-0.27919 0.09894,-0.53398 0.26022,-0.73863l7.1099,-12.09605c0.18026,-0.44047 0.61395,-0.75219 1.12219,-0.75219c0.45267,0 0.84164,0.24937 1.05036,0.61395l0.00135,-0.00136l7.22782,12.29257c0.00542,0.00949 0.01084,0.01897 0.01626,0.02846l0.05692,0.09487l-0.00406,0.00136c0.08809,0.16805 0.14366,0.35509 0.14366,0.55702c0,0.66817 -0.54483,1.20758 -1.21435,1.20758m-7.27796,-22.81105c-9.38952,0 -16.99952,7.61136 -16.99952,16.99952c0,9.38952 7.61,17.00088 16.99952,17.00088c9.38816,0 16.99952,-7.61136 16.99952,-17.00088c0,-9.38816 -7.61136,-16.99952 -16.99952,-16.99952" fill="#F89C00"/>
  </g>
 </g>
</svg>