<svg xmlns="http://www.w3.org/2000/svg" viewBox="0 0 42 42">
  <g fill="none" fill-rule="evenodd">
    <rect width="42" height="42" fill="none"/>
    <path stroke="#6B9AC1" d="M25.811,25.017 L15.275,25.017 L15.275,24.139 C15.289,24.027 15.331,23.93 15.414,23.846 C15.428,23.846 16.543,22.634 16.543,19.428 C16.543,16.92 18.215,15.888 19.595,15.568 L19.595,14.829 C19.595,14.314 20.041,13.881 20.557,13.881 C21.072,13.881 21.504,14.314 21.504,14.829 L21.504,15.554 C22.884,15.874 24.557,16.92 24.557,19.414 C24.557,22.62 25.672,23.832 25.686,23.846 C25.755,23.93 25.797,24.027 25.811,24.139 L25.811,25.017 Z M20.543,27.205 C19.832,27.205 19.247,26.62 19.247,25.909 C19.247,25.783 19.26,25.686 19.289,25.574 L21.797,25.574 C21.825,25.686 21.839,25.797 21.839,25.909 C21.839,26.62 21.254,27.205 20.543,27.205 Z M20.543,8 C13.615,8 8,13.616 8,20.543 C8,27.471 13.615,33.086 20.543,33.086 C27.47,33.086 33.086,27.471 33.086,20.543 C33.086,13.616 27.47,8 20.543,8 Z"/>
  </g>
</svg>
