<svg xmlns="http://www.w3.org/2000/svg" xmlns:xlink="http://www.w3.org/1999/xlink" viewBox="0 0 42 42">
  <defs>
    <polygon id="a" points="0 18 0 36 36 36 36 18 36 0 0 0"/>
  </defs>
  <g fill="none" fill-rule="evenodd">
    <rect width="42" height="42" fill="none"/>
    <g transform="translate(3 3)">
      <mask id="b" fill="white">
        <use xlink:href="#a"/>
      </mask>
      <path fill="#95B7CE" d="M36,18.0000667 C36,27.9414 27.9413333,36.0000667 18,36.0000667 C8.05866667,36.0000667 0,27.9414 0,18.0000667 C0,8.05873333 8.05866667,6.66666667e-05 18,6.66666667e-05 C27.9413333,6.66666667e-05 36,8.05873333 36,18.0000667" mask="url(#b)"/>
      <path fill="#FFFFFF" d="M22.4520215,14.3899027 L20.1685085,16.6607588 L20.9179929,16.6607588 C21.2533756,16.6614202 21.5252539,16.9339494 21.5252539,17.2699805 C21.5239309,17.6046887 21.2520526,17.8765564 20.9173314,17.8765564 L20.9160084,17.8765564 L18.6993074,17.874572 C18.5299623,17.874572 18.3771548,17.8044553 18.2666835,17.6920039 L18.2666835,17.6920039 C18.264699,17.6900195 18.263376,17.688035 18.262053,17.6860506 C18.2369158,17.6595914 18.2137632,17.6324708 18.1932565,17.6020428 C18.1760574,17.5749222 18.1621658,17.5471401 18.1489358,17.519358 C18.1462897,17.5127432 18.1423207,17.5067899 18.1396747,17.5008366 C18.104615,17.4181518 18.0887389,17.3288521 18.0920464,17.240214 L18.0946924,15.0487354 C18.0953539,14.7133658 18.3665707,14.4414981 18.7026149,14.4414981 L18.7032764,14.4414981 C19.0386591,14.4414981 19.3105374,14.7146887 19.3105374,15.0500584 L19.3098759,15.8001751 L21.5960349,13.5273346 C21.8348379,13.2905253 22.219172,13.2925097 22.455329,13.530642 C22.6914861,13.7687743 22.690163,14.1537549 22.4520215,14.3899027 M22.6312892,20.8379961 L22.6312892,20.8393191 L22.6293046,23.0559339 C22.6293046,23.2246109 22.5591852,23.3780739 22.4473909,23.4878794 L22.4467294,23.4885409 C22.4454064,23.4905253 22.4427604,23.4918482 22.4414374,23.4931712 C22.4149772,23.5183074 22.3871941,23.5414591 22.3574264,23.561965 C22.3303047,23.5791634 22.3025215,23.5930545 22.2747383,23.606284 C22.2681233,23.60893 22.2621697,23.6128988 22.2562162,23.6155447 C22.1728666,23.6506031 22.0842251,23.6658171 21.9955835,23.6631712 L19.8033581,23.6605253 C19.4686369,23.6598638 19.1967586,23.3886576 19.1960971,23.0526265 L19.1960971,23.051965 C19.1960971,22.7165953 19.4692984,22.4447276 19.8046811,22.4447276 L20.5554885,22.4453891 L18.2818981,20.1593191 C18.0457411,19.9205253 18.0477256,19.5362062 18.2852057,19.3000584 C18.5240087,19.0639105 18.9090042,19.0652335 19.1451613,19.3033658 L21.4154442,21.5861284 L21.4161057,20.8373346 C21.4167672,20.501965 21.689307,20.2300973 22.0246897,20.2300973 C22.3600724,20.2314202 22.6312892,20.5032879 22.6312892,20.8379961 M16.2973851,22.5730545 L16.2967236,22.5730545 C15.9613409,22.5730545 15.6894626,22.2998638 15.6894626,21.9644942 L15.6901241,21.2143774 L13.4039651,23.4872179 C13.1651621,23.7233658 12.780828,23.7220428 12.544671,23.4839105 C12.3085139,23.2457782 12.309837,22.8607977 12.5479785,22.6246498 L14.83083,20.3537938 L14.0820071,20.3537938 C13.7466244,20.3531323 13.4747461,20.0806031 13.4747461,19.744572 C13.4760691,19.4092023 13.7479474,19.1379961 14.0826686,19.1379961 L14.0839916,19.1379961 L16.3006926,19.1399805 C16.4700377,19.1399805 16.6228452,19.2100973 16.7333165,19.3225486 L16.7333165,19.3225486 C16.735301,19.3245331 16.736624,19.3265175 16.737947,19.3278405 C16.7630842,19.3542996 16.7862368,19.3820817 16.8067435,19.4125097 C16.8239426,19.4389689 16.8378342,19.466751 16.8510642,19.4951946 C16.8537103,19.5018093 16.8576793,19.5071012 16.8603253,19.513716 C16.895385,19.5964008 16.9112611,19.6850389 16.9079536,19.773677 L16.9053076,21.9658171 C16.9046461,22.3011868 16.6334293,22.5730545 16.2973851,22.5730545 M12.3753259,16.1620039 L12.3753259,16.1613424 L12.3779719,13.9440661 C12.3779719,13.7747276 12.4474299,13.6219261 12.5598856,13.5114591 L12.5605471,13.5114591 C12.5618701,13.5094747 12.5638546,13.5081518 12.5658391,13.5068288 C12.5922993,13.4816926 12.619421,13.4585409 12.6498502,13.4386965 C12.6763104,13.4208366 12.704755,13.4069455 12.7325382,13.393716 C12.7391533,13.39107 12.7451068,13.3871012 12.7510604,13.3844553 C12.8337484,13.3493969 12.9230515,13.3341829 13.0116931,13.3368288 L15.2039184,13.3401362 C15.5386396,13.3407977 15.8105179,13.6113424 15.8105179,13.9473735 L15.8105179,13.9486965 C15.8105179,14.2834047 15.5373166,14.5552724 15.2025954,14.5552724 L14.451788,14.5546109 L16.7247169,16.8406809 C16.9615355,17.0794747 16.959551,17.4637938 16.7220709,17.6999416 C16.4832678,17.9360895 16.0982723,17.9347665 15.8621153,17.6966342 L13.5911709,15.4138716 L13.5911709,16.1626654 C13.5905094,16.498035 13.3179696,16.7699027 12.9819254,16.7699027 C12.6465427,16.7692412 12.3753259,16.4967121 12.3753259,16.1620039 M11.4895716,12.4894747 C8.17014281,15.8094358 8.17014281,21.1912257 11.4895716,24.5105253 C14.8090004,27.8298249 20.1909996,27.8298249 23.5104284,24.5105253 C26.8298572,21.1912257 26.8298572,15.8094358 23.5104284,12.4894747 C20.1909996,9.1701751 14.8090004,9.1701751 11.4895716,12.4894747"/>
    </g>
  </g>
</svg>
