<svg xmlns="http://www.w3.org/2000/svg" viewBox="0 0 42 42">
  <g fill="none" fill-rule="evenodd">
    <rect width="42" height="42" fill="none"/>
    <path fill="#00AAF1" d="M20.5,36 L7,26.5449129 L12.0628038,23 L19.3746624,28.1211863 C19.749775,28.3177949 20.1248875,28.5152547 20.5,28.5152547 C20.8751125,28.5152547 21.250225,28.3177949 21.6253376,28.1211863 L28.9371962,23 L34,26.5449129 L20.5,36 Z M26,21.4995799 L21,25 L16,21.4995799 L21,18 L26,21.4995799 Z M7,15.4550871 L20.5,6 L34,15.4550871 L28.9371962,19 L21.6253376,13.8788137 C21.0622637,13.4847453 20.1248875,13.4847453 19.5626238,13.8788137 L12.0628038,19 L7,15.4550871 Z M39.2397701,25.1427891 L32.9699261,20.951956 L39.2397701,16.761946 C39.6198851,16.3808864 40,15.8097084 40,15.2385305 C40,14.6665295 39.6198851,14.0953515 39.2397701,13.7142919 L22.1403448,2.28579473 C21.5697619,1.90473509 20.6198851,1.90473509 20.0501231,2.28579473 L2.94987685,13.7142919 C2.38011494,14.0953515 2,14.6665295 2,15.2385305 C2,15.8097084 2.38011494,16.3808864 2.76022988,16.761946 L9.03007389,20.951956 L2.76022988,25.1427891 C2.38011494,25.5238487 2,26.0950267 2,26.6662046 C2,27.2382056 2.38011494,27.8093835 2.76022988,28.1904432 L19.8596552,39.6189404 C20.2397701,39.8090587 20.6198851,40 21,40 C21.3801149,40 21.7602299,39.8090587 22.1403448,39.6189404 L39.2397701,28.1904432 C39.810353,27.8093835 40,27.2382056 40,26.6662046 C40,26.0950267 39.6198851,25.5238487 39.2397701,25.1427891 L39.2397701,25.1427891 Z"/>
  </g>
</svg>
