<svg xmlns="http://www.w3.org/2000/svg" viewBox="0 0 47 65">
  <g fill="none" fill-rule="evenodd">
    <rect width="47" height="65" fill="#00A7F3"/>
    <path fill="#7FD3F9" d="M11.1476,16.294 C10.5166,16.294 10.0006,15.778 10.0006,15.147 C10.0006,14.516 10.5166,14 11.1476,14 L30.2286,14 C30.8596,14 31.3756,14.516 31.3756,15.147 C31.3756,15.778 30.8596,16.294 30.2286,16.294 L11.1476,16.294 Z M30.229,19.4465 C30.86,19.4465 31.376,19.9625 31.376,20.5935 C31.376,21.2245 30.86,21.7405 30.229,21.7405 L11.148,21.7405 C10.517,21.7405 10,21.2245 10,20.5935 C10,19.9625 10.517,19.4465 11.148,19.4465 L30.229,19.4465 Z M30.229,24.893 C30.86,24.893 31.376,25.409 31.376,26.04 C31.376,26.671 30.86,27.187 30.229,27.187 L11.148,27.187 C10.517,27.187 10,26.671 10,26.04 C10,25.409 10.517,24.893 11.148,24.893 L30.229,24.893 Z"/>
  </g>
</svg>
