<svg xmlns="http://www.w3.org/2000/svg" viewBox="0 0 40 40">
  <g fill="none" fill-rule="evenodd">
    <rect width="42" height="42"/>
    <path fill="#57C7E5" d="M19.8075862,13.580331 C18.2571034,13.580331 16.9995862,12.3228138 16.9995862,10.772331 C16.9995862,9.22184828 18.2571034,7.96433103 19.8075862,7.96433103 C21.3593103,7.96433103 22.6155862,9.22184828 22.6155862,10.772331 C22.6155862,12.3228138 21.3593103,13.580331 19.8075862,13.580331 L19.8075862,13.580331 Z M22.6155862,28.8430897 C22.6155862,30.3873655 21.3518621,31.6510897 19.8075862,31.6510897 C18.2633103,31.6510897 16.9995862,30.3873655 16.9995862,28.8430897 L16.9995862,18.8301241 C16.9995862,17.2858483 18.2633103,16.0221241 19.8075862,16.0221241 C21.3518621,16.0221241 22.6155862,17.2858483 22.6155862,18.8301241 L22.6155862,28.8430897 Z M19.8075862,1.99950345 C9.97213793,1.99950345 2,9.97288276 2,19.808331 C2,29.6425379 9.97213793,37.6146759 19.8075862,37.6146759 C29.6417931,37.6146759 37.6151724,29.6425379 37.6151724,19.808331 C37.6151724,9.97288276 29.6417931,1.99950345 19.8075862,1.99950345 L19.8075862,1.99950345 Z"/>
  </g>
</svg>
