<svg xmlns="http://www.w3.org/2000/svg" viewBox="0 0 42 42">
  <g fill="none" fill-rule="evenodd">
    <rect width="42" height="42" fill="none"/>
    <g transform="translate(5 7)">
      <polygon fill="#000000" points="13.266 27.973 13.266 17.029 6.64 17.029 6.64 20.143 .908 14.41 6.64 8.678 6.64 11.792 13.266 11.792 13.266 .623 18.524 .623 18.524 11.792 25.089 11.792 25.089 8.678 30.822 14.41 25.089 20.143 25.089 17.029 18.524 17.029 18.524 27.973"/>
      <path fill="#FFFFFF" d="M19.0241,0.1233 L18.0241,0.1233 L13.7661,0.1233 L12.7661,0.1233 L12.7661,1.1233 L12.7661,11.2923 L7.1401,11.2923 L7.1401,9.8853 L7.1401,7.4713 L5.4331,9.1783 L0.9081,13.7033 L0.2001,14.4103 L0.9081,15.1173 L5.4331,19.6433 L7.1401,21.3503 L7.1401,18.9353 L7.1401,17.5293 L12.7661,17.5293 L12.7661,27.4733 L12.7661,28.4733 L13.7661,28.4733 L18.0241,28.4733 L19.0241,28.4733 L19.0241,27.4733 L19.0241,17.5293 L24.5891,17.5293 L24.5891,18.9353 L24.5891,21.3503 L26.2961,19.6433 L30.8221,15.1173 L31.5291,14.4103 L30.8221,13.7033 L26.2961,9.1783 L24.5891,7.4713 L24.5891,9.8853 L24.5891,11.2923 L19.0241,11.2923 L19.0241,1.1233 L19.0241,0.1233 Z M18.0241,1.1233 L18.0241,12.2923 L25.5891,12.2923 L25.5891,9.8853 L30.1151,14.4103 L25.5891,18.9353 L25.5891,16.5293 L18.0241,16.5293 L18.0241,27.4733 L13.7661,27.4733 L13.7661,16.5293 L6.1401,16.5293 L6.1401,18.9353 L1.6151,14.4103 L6.1401,9.8853 L6.1401,12.2923 L13.7661,12.2923 L13.7661,1.1233 L18.0241,1.1233 Z"/>
    </g>
  </g>
</svg>
