<svg xmlns="http://www.w3.org/2000/svg" viewBox="0 0 42 42">
  <g fill="none" fill-rule="evenodd">
    <rect width="42" height="42" fill="none"/>
    <path fill="#FFB000" d="M20.587 20.9071C20.911 20.9071 21.174 20.5407107 21.174 20.0890169L21.174 16.8180831C21.174 16.3663893 20.911 16 20.587 16 20.263 16 20 16.3663893 20 16.8180831L20 20.0890169C20 20.5407107 20.263 20.9071 20.587 20.9071zM20.5437 21.9071C20.1117 21.9071 19.7607 22.2561 19.7607 22.6871 19.7607 23.1171 20.1117 23.4661 20.5437 23.4661 20.9767 23.4661 21.3267 23.1171 21.3267 22.6871 21.3267 22.2561 20.9767 21.9071 20.5437 21.9071z"/>
    <path stroke="#FFB000" d="M25.914,24.831 L15.173,24.831 C14.679,24.831 14.278,24.433 14.278,23.94 C14.278,23.733 14.351,23.546 14.47,23.395 L19.716,14.47 C19.849,14.145 20.169,13.915 20.544,13.915 C20.878,13.915 21.165,14.099 21.319,14.368 L21.32,14.367 L26.653,23.437 C26.657,23.444 26.661,23.451 26.665,23.458 L26.707,23.528 L26.704,23.529 C26.769,23.653 26.809,23.791 26.809,23.94 C26.809,24.433 26.408,24.831 25.914,24.831 Z M20.544,8 C13.616,8 8,13.616 8,20.543 C8,27.471 13.616,33.087 20.544,33.087 C27.471,33.087 33.087,27.471 33.087,20.543 C33.087,13.616 27.471,8 20.544,8 Z"/>
  </g>
</svg>
