<svg xmlns="http://www.w3.org/2000/svg" viewBox="0 0 42 42">
  <g fill="none" fill-rule="evenodd">
    <rect width="42" height="42" fill="none"/>
    <path fill="#AAC32D" d="M28,27 L14,27 L14,25.8173491 C14.0186029,25.6664871 14.0744115,25.5358297 14.1847001,25.4226832 C14.203303,25.4226832 15.6848899,23.7901401 15.6848899,19.4717134 C15.6848899,16.0934806 17.9066059,14.7047414 19.7403189,14.2723599 L19.7403189,13.2769397 C19.7403189,12.5832435 20.3329537,12 21.0186029,12 C21.7029233,12 22.2769552,12.5832435 22.2769552,13.2769397 L22.2769552,14.2535022 C24.1106682,14.6858836 26.333713,16.0934806 26.333713,19.4528556 C26.333713,23.7712823 27.8152999,25.4038254 27.8339028,25.4226832 C27.9255885,25.5358297 27.9813971,25.6664871 28,25.8173491 L28,27 Z M21,30 C19.9027778,30 19,29.2822086 19,28.409816 C19,28.2564417 19.0216049,28.1361963 19.0648148,28 L22.9351852,28 C22.9783951,28.1361963 23,28.2736196 23,28.409816 C23,29.2822086 22.0972222,30 21,30 L21,30 Z M21,4 C11.6102208,4 4,11.6112728 4,20.9993224 C4,30.3887272 11.6102208,38 21,38 C30.3884238,38 38,30.3887272 38,20.9993224 C38,11.6112728 30.3884238,4 21,4 L21,4 Z"/>
  </g>
</svg>
