<svg xmlns="http://www.w3.org/2000/svg" viewBox="0 0 42 42">
  <g fill="none" fill-rule="evenodd">
    <rect width="42" height="42" fill="none"/>
    <path stroke="#00AFB4" d="M31.9745156,26.183 L28.6405156,24.337 C29.3075156,22.644 29.4095156,20.797 28.8965156,19.053 C28.5895156,18.13 28.1785156,17.258 27.6145156,16.489 L30.5895156,13.668 C33.2565156,17.156 33.9235156,21.977 31.9745156,26.183 Z M21.0495156,33.108 C18.9975156,33.108 16.9975156,32.595 15.2025156,31.62 C9.76551563,28.594 7.55951563,21.926 9.97051563,16.284 L13.5095156,18.233 C11.9705156,21.977 13.4575156,26.388 17.0995156,28.389 C18.3305156,29.055 19.6645156,29.414 21.0495156,29.414 C23.6655156,29.414 26.0755156,28.183 27.6145156,26.08 L30.9485156,27.927 C28.7435156,31.158 25.0505156,33.108 21.0495156,33.108 Z M17.9715156,9.411 L17.9715156,9.513 L18.7925156,13.463 C17.0995156,13.975 15.5605156,15.001 14.4835156,16.489 L10.9445156,14.54 C12.5865156,11.975 15.0995156,10.18 17.9715156,9.411 Z M26.4345156,24.285 C25.3575156,26.234 23.3065156,27.465 21.0495156,27.465 C20.0235156,27.465 18.9975156,27.209 18.0745156,26.696 C15.0995156,25.055 14.0225156,21.31 15.6635156,18.335 C16.7405156,16.386 18.7925156,15.155 21.0495156,15.155 C22.0755156,15.155 23.1005156,15.412 24.0245156,15.925 C25.4605156,16.694 26.4865156,18.027 26.9475156,19.618 C27.4095156,21.208 27.2045156,22.849 26.4345156,24.285 Z M19.9205156,9.051 C20.2795156,9 20.6905156,9 21.0495156,9 C23.1005156,9 25.1015156,9.513 26.7945156,10.539 C27.6655156,11.001 28.4355156,11.565 29.1535156,12.232 L29.1025156,12.283 L26.1785156,15.053 C25.8195156,14.693 25.4095156,14.437 24.9475156,14.181 C23.7165156,13.514 22.3825156,13.155 20.9975156,13.155 L20.7415156,13.155 L19.9205156,9.103 L19.9205156,9.051 Z"/>
  </g>
</svg>
