<?xml version="1.0" encoding="utf-8"?>
<!-- Generator: Adobe Illustrator 22.0.1, SVG Export Plug-In . SVG Version: 6.00 Build 0)  -->
<svg version="1.1" id="Layer_1" xmlns="http://www.w3.org/2000/svg" xmlns:xlink="http://www.w3.org/1999/xlink" x="0px" y="0px"
	 viewBox="0 0 42 42" style="enable-background:new 0 0 42 42;" xml:space="preserve">
<style type="text/css">
	.st0{fill:#66BBE4;}
</style>
<path class="st0" d="M21,0.8c-11,0-20,9-20,20s9,20,20,20c11,0,20-9,20-20S32.1,0.8,21,0.8z M27.7,16.6l-1.3,5.1
	c0.7,0.4,1.3,1.2,1.3,2.1c0,1.3-1,2.4-2.4,2.4c-1.3,0-2.4-1-2.4-2.4c0-0.3,0.1-0.5,0.1-0.7l-4.7-3c-0.4,0.4-1,0.6-1.6,0.6l-1.2,4.6
	c0.7,0.4,1.2,1.2,1.2,2.1c0,1.3-1,2.4-2.4,2.4c-1.3,0-2.4-1-2.4-2.4c0-1.3,1-2.4,2.3-2.3l1.2-4.6c-0.7-0.4-1.2-1.2-1.2-2.1
	c0-1.3,1-2.4,2.4-2.4c1.3,0,2.4,1,2.4,2.4c0,0.3-0.1,0.5-0.1,0.7l4.7,3c0.4-0.4,1-0.6,1.6-0.6l1.3-5.1c-0.7-0.4-1.3-1.2-1.3-2.1
	c0-1.3,1-2.4,2.4-2.4c1.3,0,2.4,1,2.4,2.4C30,15.6,28.9,16.6,27.7,16.6z"/>
</svg>
