<?xml version="1.0" encoding="utf-8"?>
<!-- Generator: Adobe Illustrator 22.0.1, SVG Export Plug-In . SVG Version: 6.00 Build 0)  -->
<svg version="1.1" id="Layer_1" xmlns="http://www.w3.org/2000/svg" xmlns:xlink="http://www.w3.org/1999/xlink" x="0px" y="0px"
	 viewBox="0 0 42 42" style="enable-background:new 0 0 42 42;" xml:space="preserve">
<style type="text/css">
	.st0{fill:#66BBE4;}
</style>
<g>
	<path class="st0" d="M20.4,29.7v-4.2c-1.2,0-2.4-0.2-3.5-0.5C17.6,26.9,18.8,28.6,20.4,29.7z"/>
	<path class="st0" d="M16.2,21.2c0,0.9,0.1,1.8,0.3,2.6c1.3,0.4,2.6,0.6,4,0.7V20c-1.6,0-2.9-0.2-4.1-0.6
		C16.3,20,16.2,20.6,16.2,21.2z"/>
	<path class="st0" d="M15.1,21.2c0-0.7,0.1-1.4,0.2-2.1c-1-0.4-1.9-0.9-2.7-1.4c-0.4,1.1-0.7,2.2-0.7,3.5c0,0.2,0,0.2,0,0.4
		c0.9,0.7,2.1,1.4,3.5,1.9C15.2,22.7,15.1,22,15.1,21.2z"/>
	<path class="st0" d="M15.6,24.6c-1.3-0.5-2.6-1.1-3.6-1.9c0.7,3.7,3.5,6.6,7,7.2C17.4,28.6,16.3,26.7,15.6,24.6z"/>
	<path class="st0" d="M26.3,18.1c0.9-0.3,1.8-0.7,2.6-1.2c-1.2-2.3-3.5-4-6.1-4.6C24.5,13.7,25.7,15.7,26.3,18.1z"/>
	<path class="st0" d="M19.1,12.2c-2.7,0.6-5,2.3-6.3,4.7c0.8,0.5,1.6,0.9,2.6,1.2C16.1,15.7,17.4,13.7,19.1,12.2z"/>
	<path class="st0" d="M16.5,18.5c1.2,0.3,2.6,0.5,3.9,0.6v-6.4C18.5,14,17.1,16.1,16.5,18.5z"/>
	<path class="st0" d="M26.5,19c0.1,0.7,0.2,1.3,0.2,2c0,0.8-0.1,1.6-0.2,2.4c1.4-0.5,2.6-1.2,3.5-1.9c0-0.2,0-0.2,0-0.4
		c0-1.2-0.2-2.4-0.7-3.5C28.3,18.1,27.5,18.6,26.5,19z"/>
	<path class="st0" d="M21.4,12.6v6.5c1.3-0.1,2.7-0.3,4-0.7C24.7,16,23.3,13.9,21.4,12.6z"/>
	<path class="st0" d="M22.6,30c3.7-0.7,6.6-3.6,7.2-7.2c-1,0.7-2.2,1.4-3.6,1.9C25.5,26.8,24.2,28.7,22.6,30z"/>
	<path class="st0" d="M21.4,25.5v4.1c1.6-1.2,2.8-2.7,3.5-4.6C23.8,25.3,22.6,25.5,21.4,25.5z"/>
	<path class="st0" d="M21,1.1c-11,0-20,9-20,20s9,20,20,20c11,0,20-9,20-20S32,1.1,21,1.1z M21,31.2c-5.5,0-10-4.4-10-10
		c0-1.5,0.2-2.9,0.8-4.1c0.1-0.2,0.2-0.5,0.3-0.7c1.7-3.1,4.9-5.3,8.8-5.3s7.2,2.1,8.8,5.3c0.2,0.2,0.3,0.5,0.4,0.7
		c0.6,1.2,0.9,2.6,0.9,4C31,26.7,26.5,31.2,21,31.2z"/>
	<path class="st0" d="M25.6,21c0-0.6,0-1.2-0.1-1.6c-1.2,0.4-2.6,0.7-4.1,0.7v4.4c1.3,0,2.6-0.2,3.9-0.7C25.4,22.9,25.6,22,25.6,21z
		"/>
</g>
</svg>
