<svg width="42" height="42" xmlns="http://www.w3.org/2000/svg" xmlns:svg="http://www.w3.org/2000/svg">
 <g>
  <title>Layer 1</title>
  <ellipse fill="#ffffff" stroke-width="5" stroke-dasharray="null" stroke-linejoin="null" stroke-linecap="null" cx="20.84983" cy="21.10868" id="svg_4" rx="10.66203" ry="10.17397" stroke="#ffffff"/>
  <g fill="none" fill-rule="evenodd" id="svg_1">
   <rect width="42" height="42" fill="none" id="svg_2"/>
   <path fill="#7EC35C" d="m28,27l-14,0l0,-1.18265c0.0186,-0.15086 0.07441,-0.28152 0.1847,-0.39467c0.0186,0 1.50019,-1.63254 1.50019,-5.95097c0,-3.37823 2.22172,-4.76697 4.05543,-5.19935l0,-0.99542c0,-0.6937 0.59263,-1.27694 1.27828,-1.27694c0.68432,0 1.25836,0.58324 1.25836,1.27694l0,0.97656c1.83371,0.43238 4.05675,1.83998 4.05675,5.19936c0,4.31842 1.48159,5.95097 1.50019,5.96982c0.09169,0.11315 0.1475,0.24381 0.1661,0.39467l0,1.18265zm-7,3c-1.09722,0 -2,-0.71779 -2,-1.59018c0,-0.15338 0.0216,-0.27362 0.06481,-0.40982l3.87038,0c0.04321,0.1362 0.06481,0.27362 0.06481,0.40982c0,0.87239 -0.90278,1.59018 -2,1.59018l0,0zm0,-26c-9.38978,0 -17,7.61127 -17,16.99932c0,9.38941 7.61022,17.00068 17,17.00068c9.38842,0 17,-7.61127 17,-17.00068c0,-9.38805 -7.61158,-16.99932 -17,-16.99932l0,0z" id="svg_3"/>
  </g>
 </g>
</svg>