<svg xmlns="http://www.w3.org/2000/svg" viewBox="0 0 42 42">
  <g fill="none" fill-rule="evenodd">
    <rect width="42" height="42" fill="none"/>
    <path fill="#CCCCCC" d="M23.6916382,23.3596636 C23.6896797,23.3616222 23.6877211,23.3616222 23.6857626,23.3635807 C23.6798869,23.3684771 23.6789076,23.3763113 23.6740112,23.3812077 C22.1659261,24.9666556 20.0497105,25.9655172 17.6896552,25.9655172 C13.1183945,25.9655172 9.4137931,22.2609159 9.4137931,17.6896552 C9.4137931,13.1193738 13.1183945,9.4137931 17.6896552,9.4137931 C22.2599366,9.4137931 25.9655172,13.1193738 25.9655172,17.6896552 C25.9655172,19.8900885 25.092003,21.8770396 23.6916382,23.3596636 M36.743566,34.0745135 C36.6449376,33.759645 36.4822006,33.4627121 36.2366158,33.2146038 L27.9301279,24.8237584 C29.3050085,22.7890705 30.1098166,20.331901 30.1098166,17.683419 C30.1098166,10.6785926 24.4889814,5 17.5554014,5 C10.6208353,5 5,10.6785926 5,17.683419 C5,24.6892418 10.6208353,30.3678343 17.5554014,30.3678343 C20.3426414,30.3678343 22.9099399,29.4381753 24.993959,27.8857543 L33.252119,36.2287716 C33.4977038,36.47688 33.7926029,36.6412891 34.1032825,36.740931 C34.3853598,36.9013545 34.7059023,37 35.0520881,37 C36.1281245,37 37,36.1191655 37,35.0330687 C37,34.6823291 36.9013716,34.3594893 36.743566,34.0745135"/>
  </g>
</svg>
