<svg xmlns="http://www.w3.org/2000/svg" viewBox="0 0 42 42">
  <g fill="none" fill-rule="evenodd">
    <rect width="42" height="42" fill="none"/>
    <g fill="#929BA5" transform="translate(9 7)">
      <path d="M0,-0.0001 L0,2.0109 L2.03,2.0109 L2.03,11.0459 L0,11.0459 L0,13.6679 L1.971,13.6679 L1.971,24.7039 L1.141,24.7039 L1.141,25.5779 L0,25.5779 L0,27.1389 L24.16,27.1389 L24.16,25.5779 L23.077,25.5779 L23.077,24.7039 L22.212,24.7039 L22.212,13.6679 L24.16,13.6679 L24.16,11.0459 L21.973,11.0459 L21.973,2.0109 L24.16,2.0109 L24.16,-0.0001 L0,-0.0001 Z M17.487,6.7189 L20.017,6.7189 L20.017,4.1889 L17.487,4.1889 L17.487,6.7189 Z M13.037,6.7189 L15.566,6.7189 L15.566,4.1889 L13.037,4.1889 L13.037,6.7189 Z M8.587,6.7189 L11.116,6.7189 L11.116,4.1889 L8.587,4.1889 L8.587,6.7189 Z M4.136,6.7189 L6.666,6.7189 L6.666,4.1889 L4.136,4.1889 L4.136,6.7189 Z M17.487,11.0659 L20.017,11.0659 L20.017,8.5359 L17.487,8.5359 L17.487,11.0659 Z M13.037,11.0659 L15.566,11.0659 L15.566,8.5359 L13.037,8.5359 L13.037,11.0659 Z M8.587,11.0659 L11.116,11.0659 L11.116,8.5359 L8.587,8.5359 L8.587,11.0659 Z M4.136,11.0659 L6.666,11.0659 L6.666,8.5359 L4.136,8.5359 L4.136,11.0659 Z M12.616,24.7149 L17.901,24.7149 L17.901,15.0189 L12.616,15.0189 L12.616,24.7149 Z M6.259,24.7149 L11.544,24.7149 L11.544,15.0189 L6.259,15.0189 L6.259,24.7149 Z"/>
      <g transform="translate(10 19.139)">
        <path d="M.4206 1.2943C.6166 1.2943.7766 1.1353.7766.9393.7766.7423.6166.5833.4206.5833.2246.5833.0646.7423.0646.9393.0646 1.1353.2246 1.2943.4206 1.2943M3.5428 1.2943C3.7398 1.2943 3.8988 1.1353 3.8988.9393 3.8988.7423 3.7398.5833 3.5428.5833 3.3468.5833 3.1868.7423 3.1868.9393 3.1868 1.1353 3.3468 1.2943 3.5428 1.2943"/>
      </g>
    </g>
  </g>
</svg>
