<svg xmlns="http://www.w3.org/2000/svg" viewBox="0 0 40 40">
  <g fill="none" fill-rule="evenodd">
    <rect width="42" height="42" fill="none"/>
    <path fill="#96998A" d="M19.8075862,33.7227034 C16.7686897,33.7227034 13.9668966,32.7382897 11.6777931,31.0847724 L31.0855172,11.6782897 C32.7377931,13.9661517 33.7234483,16.7691862 33.7234483,19.8080828 C33.7234483,27.4922207 27.4929655,33.7227034 19.8075862,33.7227034 M19.8075862,5.89222069 C22.8464828,5.89222069 25.6482759,6.87787586 27.9373793,8.53015172 L8.52965517,27.9366345 C6.87737931,25.6487724 5.89172414,22.8457379 5.89172414,19.8080828 C5.89172414,12.1227034 12.1222069,5.89222069 19.8075862,5.89222069 M19.8075862,2.00049655 C9.97213793,2.00049655 2,9.97263448 2,19.8080828 C2,29.6422897 9.97213793,37.615669 19.8075862,37.615669 C29.6430345,37.615669 37.6151724,29.6422897 37.6151724,19.8080828 C37.6151724,9.97263448 29.6430345,2.00049655 19.8075862,2.00049655"/>
  </g>
</svg>
