<svg xmlns="http://www.w3.org/2000/svg" xmlns:xlink="http://www.w3.org/1999/xlink" viewBox="0 0 42 42">
  <defs>
    <polygon id="a" points="0 0 39 0 39 22 0 22"/>
  </defs>
  <g fill="none" fill-rule="evenodd">
    <rect width="42" height="42" fill="none"/>
    <g transform="translate(1 10)">
      <mask id="b" fill="white">
        <use xlink:href="#a"/>
      </mask>
      <path fill="#929BA5" d="M30.8714782,21.9929467 L30.8698835,22 L30.6179104,22 C30.6115314,22 30.6043549,22 30.6043549,22 C30.5923942,22 30.5868125,22 30.5804334,22 L6.51940299,21.9490596 C2.39852791,21.9490596 0,19.1857367 0,15.7139498 C0,12.2429467 3.34023717,9.42868339 7.46111225,9.42868339 C7.97861378,9.42868339 8.48335719,9.47257053 8.97135555,9.55721003 C9.08697608,4.58855799 13.9932734,0 20.0334492,0 C25.7044367,0 29.1236148,2.69357367 30.4536496,6.18730408 C30.5557146,6.5023511 30.6115314,6.84090909 30.6115314,7.21003135 C30.6115314,8.21551724 30.1801472,9.09326019 29.534267,9.5838558 C30.45046,9.27507837 31.1282355,8.27194357 31.1848497,7.05956113 C35.5489266,7.34561129 39,10.7586207 39,14.9443574 C39,19.637931 36.1469638,21.9153605 30.8714782,21.9929467" mask="url(#b)"/>
    </g>
  </g>
</svg>
