<svg xmlns="http://www.w3.org/2000/svg" viewBox="0 0 40 40">
  <g fill="none" fill-rule="evenodd">
    <rect width="42" height="42" fill="none"/>
    <g fill="#96998A" transform="translate(2 2)">
      <path d="M17.8077103,31.677269 C10.1471586,31.677269 3.93777931,25.4678897 3.93777931,17.8073379 C3.93777931,10.1480276 10.1471586,3.9374069 17.8077103,3.9374069 C25.4682621,3.9374069 31.6776414,10.1480276 31.6776414,17.8073379 C31.6776414,25.4678897 25.4682621,31.677269 17.8077103,31.677269 M17.8077103,-0.000248275862 C7.97226207,-0.000248275862 0.000124137931,7.97313103 0.000124137931,17.8073379 C0.000124137931,27.6427862 7.97226207,35.6149241 17.8077103,35.6149241 C27.6431586,35.6149241 35.6152966,27.6427862 35.6152966,17.8073379 C35.6152966,7.97313103 27.6431586,-0.000248275862 17.8077103,-0.000248275862"/>
      <polygon points="15.687 28.335 19.928 28.335 19.928 7.281 15.687 7.281"/>
    </g>
  </g>
</svg>
