<svg xmlns="http://www.w3.org/2000/svg" viewBox="0 0 42 42">
  <g fill="none" fill-rule="evenodd">
    <rect width="42" height="42" fill="none"/>
    <path fill="#E0B835" d="M20.5784,21.846 C20.9024,21.846 21.1654,21.585 21.1654,21.261 L21.1654,18.922 C21.1654,18.599 20.9024,18.337 20.5784,18.337 C20.2544,18.337 19.9914,18.599 19.9914,18.922 L19.9914,21.261 C19.9914,21.585 20.2544,21.846 20.5784,21.846"/>
    <path fill="#F89C00" d="M20.5784,22.8203 C20.1454,22.8203 19.7954,23.1693 19.7954,23.6003 C19.7954,24.0303 20.1454,24.3803 20.5784,24.3803 C21.0104,24.3803 21.3614,24.0303 21.3614,23.6003 C21.3614,23.1693 21.0104,22.8203 20.5784,22.8203"/>
    <path fill="#F89C00" d="M27.8564586,27.2677469 L13.2991861,27.2677469 C12.6296681,27.2677469 12.086193,26.7283376 12.086193,26.0601749 C12.086193,25.7809832 12.1851298,25.5261869 12.3464105,25.3215367 L19.456312,13.2254881 C19.6365668,12.7850158 20.0702627,12.4732969 20.5785,12.4732969 C21.0311701,12.4732969 21.420141,12.722672 21.6288572,13.0872476 L21.6302125,13.0858923 L28.858025,25.3784593 C28.8634462,25.3879464 28.8688674,25.3974335 28.8742886,25.4069206 L28.9312112,25.5017915 L28.9271453,25.5031468 C29.0152397,25.671204 29.070807,25.8582353 29.070807,26.0601749 C29.070807,26.7283376 28.5259766,27.2677469 27.8564586,27.2677469 M20.5785,4.4567 C11.1889847,4.4567 3.57897765,12.0680623 3.57897765,21.4562224 C3.57897765,30.8457377 11.1889847,38.4571 20.5785,38.4571 C29.96666,38.4571 37.5780224,30.8457377 37.5780224,21.4562224 C37.5780224,12.0680623 29.96666,4.4567 20.5785,4.4567"/>
  </g>
</svg>
