<svg xmlns="http://www.w3.org/2000/svg" viewBox="0 0 42 42">
  <g fill="none" fill-rule="evenodd">
    <rect width="42" height="42" fill="none"/>
    <path fill="#929BA5" d="M33.131,12.177 C33.131,10.422 31.709,9 29.954,9 C28.199,9 26.777,10.422 26.777,12.177 C26.777,13.379 27.445,14.424 28.429,14.965 L26.727,21.845 C25.923,21.858 25.191,22.17 24.639,22.676 L18.374,18.635 C18.474,18.325 18.531,17.995 18.531,17.652 C18.531,15.897 17.109,14.475 15.354,14.475 C13.599,14.475 12.177,15.897 12.177,17.652 C12.177,18.838 12.829,19.87 13.791,20.415 L12.17,26.601 C10.42,26.604 9,28.025 9,29.778 C9,31.531 10.422,32.955 12.177,32.955 C13.932,32.955 15.354,31.531 15.354,29.778 C15.354,28.591 14.702,27.558 13.74,27.013 L15.359,20.829 C16.183,20.827 16.929,20.511 17.493,19.996 L23.757,24.037 C23.656,24.346 23.6,24.676 23.6,25.02 C23.6,26.774 25.023,28.197 26.777,28.197 C28.532,28.197 29.954,26.774 29.954,25.02 C29.954,23.818 29.286,22.773 28.302,22.232 L30.003,15.351 C31.736,15.324 33.131,13.914 33.131,12.177"/>
  </g>
</svg>
