<svg xmlns="http://www.w3.org/2000/svg" viewBox="0 0 42 42">
  <g fill="none" fill-rule="evenodd">
    <rect width="42" height="42" fill="none"/>
    <path fill="#00A7F3" stroke="#00A7F3" stroke-width=".5" d="M28.1723586,16.8011175 C28.3057615,16.8033164 28.4120439,16.9125308 28.410578,17.0459336 L28.410578,30.1040186 C28.410578,30.2374214 28.3028295,30.3459028 28.1686937,30.3459028 L11.2419267,30.3459028 C11.1085238,30.3459028 11.0000424,30.2374214 11.0000424,30.1040186 L11.0000424,13.1772515 C10.9978435,13.0599743 11.0814035,12.9573567 11.1964817,12.9353672 C11.2118744,12.9339013 11.227267,12.9339013 11.2419267,12.9353672 L24.3000116,12.9353672 C24.3022105,12.9353672 24.3044095,12.9353672 24.3066084,12.9353672 C24.4400113,12.9375662 24.5470267,13.0475136 24.5455608,13.1809164 C24.5433618,13.3143192 24.4326814,13.4213347 24.3000116,13.4191358 L11.4838109,13.4191358 L11.4838109,29.8621343 L27.9268095,29.8621343 L27.9268095,17.0459336 L27.9268095,17.0393368 C27.9290084,16.905934 28.0382228,16.7996515 28.1723586,16.8011175 Z M30.1035479,11.0010995 C30.2369507,11.0010995 30.3446992,11.1095809 30.3446992,11.2429837 L30.3446992,14.6278974 L30.3446992,14.6352272 C30.3432332,14.76863 30.2332858,14.8756455 30.099883,14.8734465 C29.9664801,14.8719806 29.8594647,14.7620332 29.8616636,14.6278974 L29.8616636,11.8249719 L22.056132,19.6305036 C21.9615772,19.7265243 21.8076509,19.7279903 21.7116302,19.6341685 C21.6156094,19.5403467 21.6141435,19.3864204 21.7079652,19.2903996 L29.5134969,11.484868 L26.7179013,11.484868 C26.5844984,11.4973287 26.4657553,11.399109 26.4540275,11.2657062 C26.4408339,11.1315704 26.5390535,11.0135602 26.6724564,11.0010995 C26.687849,10.9996335 26.7025086,10.9996335 26.7179013,11.0010995 L30.1035479,11.0010995 Z"/>
  </g>
</svg>
