<svg xmlns="http://www.w3.org/2000/svg" viewBox="0 0 42 42">
  <g fill="none" fill-rule="evenodd">
    <rect width="42" height="42" fill="none"/>
    <path fill="#C2C5C6" d="M28.6725864 16L14.5060383 16C14.2271494 16 14 16.2488171 14 16.5521017 14 16.8566241 14.2271494 17.1054412 14.5060383 17.1054412L28.6725864 17.1054412C28.9502133 17.1054412 29.1786246 16.8566241 29.1786246 16.5521017 29.1786246 16.2488171 28.9502133 16 28.6725864 16M28.6725864 20L14.5060383 20C14.2271494 20 14 20.2488171 14 20.5521017 14 20.8566241 14.2271494 21.1054412 14.5060383 21.1054412L28.6725864 21.1054412C28.9502133 21.1054412 29.1786246 20.8566241 29.1786246 20.5521017 29.1786246 20.2488171 28.9502133 20 28.6725864 20"/>
    <path fill="#C2C5C6" d="M30.5842364,30.2932713 C30.5842364,31.0322953 29.9696712,31.6339129 29.2150306,31.6339129 L12.9763756,31.6339129 C12.222997,31.6339129 11.6084318,31.0322953 11.6084318,30.2932713 L11.6084318,11.9006107 C11.6084318,11.1603488 12.222997,10.5574934 12.9763756,10.5574934 L29.2150306,10.5574934 C29.9696712,10.5574934 30.5842364,11.1603488 30.5842364,11.9006107 L30.5842364,30.2932713 Z M29.2150306,8 L12.9763756,8 C10.7843844,8 9,9.75038512 9,11.9006107 L9,30.2932713 C9,32.442259 10.7843844,34.1901684 12.9763756,34.1901684 L29.2150306,34.1901684 C31.4070219,34.1901684 33.1914063,32.442259 33.1914063,30.2932713 L33.1914063,11.9006107 C33.1914063,9.75038512 31.4070219,8 29.2150306,8 L29.2150306,8 Z"/>
  </g>
</svg>
