<svg xmlns="http://www.w3.org/2000/svg" viewBox="0 0 42 42">
  <g fill="none" fill-rule="evenodd">
    <rect width="42" height="42" fill="none"/>
    <path fill="#C2BFE2" d="M28.6891,18.2597 L28.6891,28.8917 C28.6891,29.8887 27.8731,30.7047 26.8761,30.7047 L15.1241,30.7047 C14.1271,30.7047 13.3111,29.8887 13.3111,28.8917 L13.3111,13.1077 C13.3111,12.1107 14.1271,11.2957 15.1241,11.2957 L21.9871,11.2957 L23.1721,11.2957 L28.6891,17.5217 L28.6891,18.2597 Z M21.0001,-0.0003 C9.4021,-0.0003 0.0001,9.4017 0.0001,20.9997 C0.0001,32.5977 9.4021,41.9997 21.0001,41.9997 C32.5981,41.9997 42.0001,32.5977 42.0001,20.9997 C42.0001,9.4017 32.5981,-0.0003 21.0001,-0.0003 L21.0001,-0.0003 Z"/>
    <path fill="#C2BFE2" d="M21.222,27.201 L23.197,27.201 L23.197,21.174 L21.222,21.174 L21.222,27.201 Z M23.639,27.201 L25.614,27.201 L25.614,24.188 L23.639,24.188 L23.639,27.201 Z M18.804,27.201 L20.779,27.201 L20.779,22.812 L18.804,22.812 L18.804,27.201 Z M16.386,27.201 L18.361,27.201 L18.361,19.864 L16.386,19.864 L16.386,27.201 Z M21.988,16.447 L21.988,12.723 L15.329,12.723 C14.895,12.723 14.541,13.077 14.541,13.51 L14.541,28.489 C14.541,28.923 14.895,29.277 15.329,29.277 L26.671,29.277 C27.104,29.277 27.459,28.923 27.459,28.489 L27.459,18.26 L23.8,18.26 C22.803,18.26 21.988,17.444 21.988,16.447 L21.988,16.447 Z"/>
  </g>
</svg>
