<svg xmlns="http://www.w3.org/2000/svg" xmlns:xlink="http://www.w3.org/1999/xlink" viewBox="0 0 42 42">
  <defs>
    <polygon id="a" points="0 .102 0 40.895 41.895 40.895 41.895 .102"/>
  </defs>
  <g fill="none" fill-rule="evenodd">
    <rect width="42" height="42" fill="none"/>
    <path fill="#929BA5" d="M22.3832757 26.3987684C22.268627 27.3294 22.0381946 28.2246632 21.6670054 29.0458737L28.9250595 29.0458737 28.9250595 26.3987684 25.7489514 26.3987684 22.3832757 26.3987684zM24.2616973 24.2687053L24.2616973 21.6204947 21.9800757 21.6204947C22.2241297 22.4870211 22.3796432 23.3778632 22.4364 24.2687053L24.2616973 24.2687053z"/>
    <polygon fill="#929BA5" points="28.926 19.49 28.926 16.842 19.972 16.842 21.181 19.49 25.75 19.49"/>
    <path fill="#929BA5" d="M19.6966378,21.6210474 C19.6262595,21.4121526 19.5490703,21.2043632 19.4673405,20.9998895 C19.3833405,20.7954158 19.2948,20.5931526 19.1994486,20.3964158 L17.1891243,15.9930474 L16.6158811,16.8993632 C16.5909081,16.9413632 16.5534486,16.9734158 16.5228,17.0109947 C16.3048541,17.2674158 15.9802054,17.4188368 15.6328541,17.4044684 C15.2344216,17.3856789 14.8779892,17.1591 14.7031784,16.8098368 L12.8029622,13.0431 L9.31469189,20.3875737 C7.74252973,23.9222053 7.74252973,28.6637842 10.8596108,30.4443632 C11.9220973,31.0622053 13.0470162,31.3727842 14.2116649,31.3727842 L14.2116649,31.3727842 C15.4046919,31.3727842 16.6204216,31.0367842 17.7317189,30.4001526 C17.7839351,30.3703105 17.8293405,30.3305211 17.8804216,30.2984684 C18.0995027,30.1569947 18.3004216,30.0000474 18.4865838,29.8287316 C18.4979351,29.8187842 18.5104216,29.8077316 18.5206378,29.7977842 C19.2664216,29.1014684 19.7556649,28.1730474 20.0235568,27.1296789 C20.033773,27.0898895 20.0428541,27.0489947 20.0519351,27.0092053 C20.1052865,26.7914684 20.1472865,26.5671 20.1802054,26.3394158 C20.1870162,26.2941 20.1949622,26.2476789 20.2006378,26.2023632 C20.2335568,25.9470474 20.2562595,25.6873105 20.2664757,25.4264684 C20.2676108,25.4143105 20.2687459,25.4043632 20.2687459,25.3944158 C20.2789622,25.1059421 20.2766919,24.8163632 20.2608,24.5223632 C20.2085838,23.5475211 20.0133405,22.5561 19.6966378,21.6210474"/>
    <g transform="translate(0 1.003)">
      <mask id="b" fill="white">
        <use xlink:href="#a"/>
      </mask>
      <path fill="#929BA5" d="M34.2897081,25.3957421 L31.1136,25.3957421 L31.1136,28.6960579 C31.1136,29.5106368 30.4472757,30.1726895 29.6277081,30.1726895 L20.2163027,30.1726895 C19.8178703,30.5716895 19.3649514,30.9275842 18.8507351,31.2293211 C17.3932216,32.0626895 15.7938162,32.4992684 14.2114378,32.4992684 L14.2114378,32.4992684 C12.6472216,32.4992684 11.1443027,32.0881105 9.74581622,31.2757421 C5.54922162,28.8784263 5.36078919,22.9100053 7.31776216,18.5132684 L11.7799784,9.11742632 C11.9570595,8.74495263 12.3384649,8.50400526 12.7607351,8.49847895 C13.1750595,8.47305789 13.5700865,8.72616316 13.7551135,9.09421579 L15.7926811,13.1339526 L16.4147351,12.1513737 C16.6270054,11.8142684 17.0106811,11.6186368 17.4193297,11.6462684 C17.824573,11.6716895 18.1821405,11.9159526 18.3467351,12.2762684 L18.9994378,13.7075842 L29.6277081,13.7075842 C30.4472757,13.7075842 31.1136,14.3696368 31.1136,15.1842158 L31.1136,18.4878474 L34.2897081,18.4878474 C35.1092757,18.4878474 35.7778703,19.1499 35.7778703,19.9633737 L35.7778703,23.9191105 C35.7778703,24.7325842 35.1092757,25.3957421 34.2897081,25.3957421 M20.9473297,0.101794737 C9.37803243,0.101794737 -0.000454054054,9.23347895 -0.000454054054,20.4983211 C-0.000454054054,31.7631632 9.37803243,40.8948474 20.9473297,40.8948474 C32.516627,40.8948474 41.8951135,31.7631632 41.8951135,20.4983211 C41.8951135,9.23347895 32.516627,0.101794737 20.9473297,0.101794737" mask="url(#b)"/>
    </g>
    <polygon fill="#929BA5" points="26.451 21.621 26.451 24.269 29.627 24.269 33.59 24.269 33.59 21.621 29.627 21.621"/>
  </g>
</svg>
