<svg xmlns="http://www.w3.org/2000/svg" viewBox="0 0 42 42">
  <g fill="none" fill-rule="evenodd">
    <rect width="42" height="42" fill="none"/>
    <path fill="#00AFB4" d="M28.232,11 L28.232,12.365 L29.255,12.365 L29.255,13.389 L30.621,13.389 L30.621,11 L28.232,11 Z M22.294,12.365 L25.263,12.365 L25.263,11 L22.294,11 L22.294,12.365 Z M16.356,12.365 L19.325,12.365 L19.325,11 L16.356,11 L16.356,12.365 Z M11,11 L11,13.389 L12.364,13.389 L12.364,12.365 L13.387,12.365 L13.387,11 L11,11 Z M29.255,19.326 L30.62,19.326 L30.62,16.357 L29.255,16.357 L29.255,19.326 Z M11,19.326 L12.364,19.326 L12.364,16.357 L11,16.357 L11,19.326 Z M29.255,25.263 L30.62,25.263 L30.62,22.294 L29.255,22.294 L29.255,25.263 Z M11,25.263 L12.364,25.263 L12.364,22.294 L11,22.294 L11,25.263 Z M29.255,28.232 L29.255,29.256 L28.232,29.256 L28.232,30.621 L30.621,30.621 L30.621,28.232 L29.255,28.232 Z M11,28.232 L11,30.621 L13.387,30.621 L13.387,29.256 L12.364,29.256 L12.364,28.232 L11,28.232 Z M22.294,30.621 L25.263,30.621 L25.263,29.256 L22.294,29.256 L22.294,30.621 Z M16.356,30.621 L19.325,30.621 L19.325,29.256 L16.356,29.256 L16.356,30.621 Z"/>
  </g>
</svg>
