<svg xmlns="http://www.w3.org/2000/svg" viewBox="0 0 42 42">
  <g fill="none" fill-rule="evenodd">
    <rect width="42" height="42" fill="none"/>
    <path fill="#B5C1C6" d="M21.499,15.999 C20.671,15.999 20,15.328 20,14.499 C20,13.671 20.671,13 21.499,13 C22.328,13 23,13.671 23,14.499 C23,15.328 22.328,15.999 21.499,15.999 Z M21.499,19.5986 C22.328,19.5986 23,20.2696 23,21.0976 C23,21.9266 22.328,22.5976 21.499,22.5976 C20.671,22.5976 20,21.9266 20,21.0976 C20,20.2696 20.671,19.5986 21.499,19.5986 Z M21.499,26.644 C22.328,26.644 23,27.315 23,28.143 C23,28.972 22.328,29.643 21.499,29.643 C20.671,29.643 20,28.972 20,28.143 C20,27.315 20.671,26.644 21.499,26.644 Z"/>
  </g>
</svg>
