<svg xmlns="http://www.w3.org/2000/svg" viewBox="0 0 42 42">
  <g fill="none" fill-rule="evenodd">
    <rect width="42" height="42" fill="none"/>
    <path fill="#CECECE" d="M41.5830014,16.7162155 C41.5830014,16.2245879 41.1842473,15.8247057 40.6913037,15.8247057 C40.1987361,15.8247057 39.8001699,16.2245879 39.8001699,16.7162155 L39.8001699,18.5909804 C39.8001699,19.084676 40.1987361,19.4847461 40.6913037,19.4847461 C41.1842473,19.4847461 41.5830014,19.084676 41.5830014,18.5909804 L41.5830014,16.7162155 Z M36.6774418,14.2554456 C36.6774418,13.763254 36.2794397,13.3637478 35.7746519,13.3637478 C35.2828363,13.3637478 34.8842702,13.763254 34.8842702,14.2554456 L34.8842702,18.5909804 C34.8842702,19.084676 35.2828363,19.4847461 35.7746519,19.4847461 C36.2794397,19.4847461 36.6774418,19.084676 36.6774418,18.5909804 L36.6774418,14.2554456 Z M31.7626701,10.8901937 C31.7626701,10.3972501 31.3629759,10 30.8707844,10 C30.3785928,10 29.9781466,10.3972501 29.9781466,10.8901937 L29.9781466,20.3709918 C29.9781466,20.8665674 30.3785928,21.2645696 30.8707844,21.2645696 C31.3629759,21.2645696 31.7626701,20.8665674 31.7626701,20.3709918 L31.7626701,10.8901937 Z M26.8452663,14.2554456 C26.8452663,13.763254 26.4467002,13.3637478 25.9541326,13.3637478 C25.461377,13.3637478 25.0635629,13.763254 25.0635629,14.2554456 L25.0635629,18.5909804 C25.0635629,19.084676 25.461377,19.4847461 25.9541326,19.4847461 C26.4467002,19.4847461 26.8452663,19.084676 26.8452663,18.5909804 L26.8452663,14.2554456 Z M21.9301186,16.7162155 C21.9301186,16.2245879 21.5321165,15.8247057 21.0425569,15.8247057 C20.5492373,15.8247057 20.1467231,16.2245879 20.1467231,16.7162155 L20.1467231,18.5909804 C20.1467231,19.084676 20.5492373,19.4847461 21.0425569,19.4847461 C21.5321165,19.4847461 21.9301186,19.084676 21.9301186,18.5909804 L21.9301186,16.7162155 Z M17.023995,14.2554456 C17.023995,13.763254 16.6218568,13.3637478 16.1283492,13.3637478 C15.6354056,13.3637478 15.2334554,13.763254 15.2334554,14.2554456 L15.2334554,18.5909804 C15.2334554,19.084676 15.6354056,19.4847461 16.1283492,19.4847461 C16.6218568,19.4847461 17.023995,19.084676 17.023995,18.5909804 L17.023995,14.2554456 Z M12.1080953,10.8901937 C12.1080953,10.3972501 11.7080251,10 11.2143295,10 C10.7230779,10 10.3201877,10.3972501 10.3201877,10.8901937 L10.3201877,20.3709918 C10.3201877,20.8665674 10.7230779,21.2645696 11.2143295,21.2645696 C11.7080251,21.2645696 12.1080953,20.8665674 12.1080953,20.3709918 L12.1080953,10.8901937 Z M7.19520359,14.2554456 C7.19520359,13.763254 6.7930654,13.3637478 6.30256584,13.3637478 C5.80887023,13.3637478 5.40710804,13.763254 5.40710804,14.2554456 L5.40710804,18.5909804 C5.40710804,19.084676 5.80887023,19.4847461 6.30256584,19.4847461 C6.7930654,19.4847461 7.19520359,19.084676 7.19520359,18.5909804 L7.19520359,14.2554456 Z M2.2824999,16.7162155 C2.2824999,16.2245879 1.88054971,15.8247057 1.38760612,15.8247057 C0.894850525,15.8247057 0.493652344,16.2245879 0.493652344,16.7162155 L0.493652344,18.5909804 C0.493652344,19.084676 0.894850525,19.4847461 1.38760612,19.4847461 C1.88054971,19.4847461 2.2824999,19.084676 2.2824999,18.5909804 L2.2824999,16.7162155 Z M20.7492724,24.4884432 C20.6945636,24.473967 19.8699829,24.2598317 18.9923853,24.2598317 C17.3332598,24.2598317 16.3315804,25.1567935 16.3315804,26.4918021 C16.3315804,27.6756563 17.1681932,28.2642934 18.1734447,28.5814543 C18.2849304,28.6188669 18.448869,28.6683116 18.5569706,28.7059122 C19.0053575,28.8455983 19.360683,29.0548456 19.360683,29.4167511 C19.360683,29.8215214 18.9482047,30.0830334 18.0519949,30.0830334 C17.2653907,30.0830334 16.5099951,29.8581819 16.3494406,29.8181373 L16.3494406,31.4614707 C16.439494,31.481023 17.3370198,31.6562417 18.2952706,31.6562417 C19.6740839,31.6562417 21.2512402,31.0542564 21.2512402,29.2603327 C21.2512402,28.3908193 20.7184399,27.589551 19.5492499,27.2174933 L19.0521703,27.0597588 C18.7553137,26.9655694 18.2264615,26.8142271 18.2264615,26.3788123 C18.2264615,26.034955 18.6191996,25.7935593 19.3415067,25.7935593 C19.9639843,25.7935593 20.721824,26.0035586 20.7492724,26.0137107 L20.7492724,24.4884432 Z M34.1138343,26.0812038 C35.1798107,26.0812038 35.976191,26.9219527 35.976191,27.9593527 C35.976191,28.9975047 35.1798107,29.8380656 34.1138343,29.8380656 C33.0429698,29.8380656 32.2497856,28.9975047 32.2497856,27.9593527 C32.2497856,26.9219527 33.0429698,26.0812038 34.1138343,26.0812038 L34.1138343,26.0812038 Z M37.8855484,27.9593527 C37.8855484,25.9185813 36.3087681,24.2632157 34.1138343,24.2632157 C31.9168325,24.2632157 30.3404282,25.9185813 30.3404282,27.9593527 C30.3404282,30.0006881 31.9168325,31.6562417 34.1138343,31.6562417 C36.3087681,31.6562417 37.8855484,30.0006881 37.8855484,27.9593527 L37.8855484,27.9593527 Z M9.63811323,24.5172077 C9.46872262,24.4690789 8.84229697,24.2632157 7.99515592,24.2632157 C5.80323015,24.2632157 4.19279734,25.8255198 4.19279734,27.9593527 C4.19279734,30.2590041 5.9688607,31.6562417 7.99515592,31.6562417 C8.79943231,31.6562417 9.41326177,31.4656067 9.63811323,31.4020617 L9.63811323,29.4851842 C9.56065604,29.5284249 8.97126696,29.863634 8.1235619,29.863634 C6.9233514,29.863634 6.14934348,29.019501 6.14934348,27.9593527 C6.14934348,26.8644238 6.95681592,26.0543193 8.1235619,26.0543193 C8.98593118,26.0543193 9.56667213,26.3976126 9.63811323,26.4350252 L9.63811323,24.5172077 Z M28.443667,24.5172077 C28.2740883,24.4690789 27.6474747,24.2632157 26.8012737,24.2632157 C24.6059638,24.2632157 22.9974111,25.8255198 22.9974111,27.9593527 C22.9974111,30.2590041 24.7751664,31.6562417 26.8012737,31.6562417 C27.602166,31.6562417 28.2171235,31.4656067 28.443667,31.4020617 L28.443667,29.4851842 C28.3645177,29.5284249 27.7758807,29.863634 26.9287396,29.863634 C25.7300332,29.863634 24.9554612,29.019501 24.9554612,27.9593527 C24.9554612,26.8644238 25.7631217,26.0543193 26.9287396,26.0543193 C27.7899809,26.0543193 28.3714738,26.3976126 28.443667,26.4350252 L28.443667,24.5172077 Z M12.1150514,31.5297157 L13.9166831,31.5297157 L13.9166831,24.3889897 L12.1150514,24.3889897 L12.1150514,31.5297157 Z"/>
  </g>
</svg>
