<svg xmlns="http://www.w3.org/2000/svg" xmlns:xlink="http://www.w3.org/1999/xlink" viewBox="0 0 42 42">
  <defs>
    <polygon id="a" points="0 17.808 0 0 35.615 0 35.615 17.808 35.615 35.615 0 35.615"/>
  </defs>
  <g fill="none" fill-rule="evenodd">
    <rect width="42" height="42" fill="none"/>
    <g transform="translate(3 3)">
      <mask id="b" fill="white">
        <use xlink:href="#a"/>
      </mask>
      <path fill="#57C7E5" d="M19.2686897,19.7067724 L19.2686897,22.1969793 C19.2686897,23.0038759 18.6157241,23.6580828 17.8075862,23.6580828 C17.0006897,23.6580828 16.3477241,23.0038759 16.3477241,22.1969793 L16.3477241,18.4169793 C16.3477241,17.6100828 17.0006897,16.9571172 17.8075862,16.9571172 C19.6597241,16.9571172 21.168,15.4500828 21.168,13.5967034 C21.168,11.7445655 19.6597241,10.237531 17.8075862,10.237531 C15.9566897,10.237531 14.4484138,11.7445655 14.4484138,13.5967034 C14.4484138,14.4036 13.7942069,15.0565655 12.9873103,15.0565655 C12.1816552,15.0565655 11.5274483,14.4036 11.5274483,13.5967034 C11.5274483,10.1332552 14.3428966,7.31656552 17.8075862,7.31656552 C21.2722759,7.31656552 24.0877241,10.1332552 24.0877241,13.5967034 C24.0877241,16.5573931 22.0307586,19.0463586 19.2686897,19.7067724 M18.8913103,27.8750483 C18.6107586,28.1431862 18.2383448,28.2983586 17.8584828,28.2983586 C17.4637241,28.2983586 17.0937931,28.1431862 16.8256552,27.8750483 C16.5451034,27.5969793 16.3924138,27.2245655 16.3924138,26.8422207 C16.3924138,26.4499448 16.5451034,26.077531 16.8256552,25.7994621 C17.361931,25.2619448 18.3413793,25.2619448 18.8913103,25.8093931 C19.1594483,26.077531 19.3133793,26.4598759 19.3133793,26.8422207 C19.3133793,27.2245655 19.1594483,27.5969793 18.8913103,27.8750483 M17.8075862,-0.000124137931 C7.97213793,-0.000124137931 0,7.97201379 0,17.8074621 C0,27.6429103 7.97213793,35.6150483 17.8075862,35.6150483 C27.6430345,35.6150483 35.6151724,27.6429103 35.6151724,17.8074621 C35.6151724,7.97201379 27.6430345,-0.000124137931 17.8075862,-0.000124137931" mask="url(#b)"/>
    </g>
  </g>
</svg>
