<svg xmlns="http://www.w3.org/2000/svg" viewBox="0 0 42 42">
  <g fill="none" fill-rule="evenodd">
    <rect width="42" height="42" fill="none"/>
    <path fill="#848689" d="M38.3893943,23.6282983 C38.3893943,24.9148096 37.3466723,25.9575316 36.060161,25.9575316 L33.3756918,25.9575316 L33.3756918,17.0132479 C33.3756918,14.4402253 31.2902478,12.3540848 28.7172252,12.3540848 L11.6840103,12.3540848 L11.6840103,9.65847093 C11.6840103,8.3719596 12.7267322,7.32923764 14.0132436,7.32923764 L36.0657333,7.32923764 C37.3529412,7.32923764 38.3956631,8.3719596 38.3956631,9.65847093 L38.3893943,23.6282983 Z M6.65289424,33.3123086 C6.37985015,33.3088259 6.10959222,33.2579784 5.85465819,33.1611592 L13.3320264,23.8149713 L16.5695492,26.5279987 C16.9993151,26.8818416 17.6192366,26.8818416 18.0490024,26.5279987 L21.0594529,24.1172701 L29.28212,33.2308133 C29.0912677,33.2802677 28.8962362,33.3060397 28.6998117,33.3067362 L6.65289424,33.3123086 Z M4.35848801,31.3090565 C4.33898486,31.2017892 4.3278402,31.0924322 4.32366096,30.9830753 L4.32366096,17.006979 C4.3278402,16.7875686 4.36197071,16.5702478 4.42814211,16.3605889 L11.5502744,22.3299458 L4.35848801,31.3090565 Z M22.894142,22.6851817 L30.9008814,16.2442666 C30.9900387,16.4908421 31.0374034,16.7506519 31.0401896,17.0132479 L31.0401896,30.9886476 C31.0374034,31.1996996 31.0060591,31.4093584 30.9468531,31.6120519 L22.894142,22.6851817 Z M28.7172252,14.6840146 C28.8398164,14.6854077 28.9631042,14.6972489 29.0843023,14.7188417 L17.3329582,24.1409525 L6.12909537,14.7480964 C6.30253409,14.7063039 6.47945552,14.6847112 6.65846657,14.6840146 L28.7172252,14.6840146 Z M36.0657333,5.00000436 L14.0132436,5.00000436 C11.4409174,5.00000436 9.35477699,7.08544827 9.35477699,9.65847093 L9.35477699,12.3540848 L6.65846657,12.3540848 C4.08544391,12.3540848 2,14.4402253 2,17.0132479 L2,30.9886476 C2,33.5616703 4.08544391,35.6478107 6.65846657,35.6478107 L28.7172252,35.6478107 C31.2902478,35.6478107 33.3756918,33.5616703 33.3756918,30.9886476 L33.3756918,28.2867649 L36.0720022,28.2867649 C38.6443283,28.2867649 40.7304688,26.201321 40.7304688,23.6282983 L40.7304688,9.65220206 C40.726986,7.07987595 38.638756,4.99652165 36.0657333,5.00000436 L36.0657333,5.00000436 Z" opacity=".3"/>
  </g>
</svg>
