<svg xmlns="http://www.w3.org/2000/svg" viewBox="0 0 42 42">
  <g fill="none" fill-rule="evenodd">
    <rect width="42" height="42" fill="none"/>
    <g fill="#00AFB4" transform="translate(10 8)">
      <polygon points="11.954 5.943 11.089 5.211 7.162 9.604 5.364 7.674 4.499 8.539 7.028 11.335"/>
      <path d="M20.0928,22.063 C20.0928,22.747 19.5348,23.303 18.8498,23.303 L4.1078,23.303 C3.4238,23.303 2.8658,22.747 2.8658,22.063 L2.8658,4.469 C2.8658,3.784 3.4238,3.226 4.1078,3.226 L18.8498,3.226 C19.5348,3.226 20.0928,3.784 20.0928,4.469 L20.0928,22.063 Z M18.8498,0.859 L4.1078,0.859 C2.1168,0.859 0.4978,2.479 0.4978,4.469 L0.4978,22.063 C0.4978,24.052 2.1168,25.67 4.1078,25.67 L18.8498,25.67 C20.8398,25.67 22.4598,24.052 22.4598,22.063 L22.4598,4.469 C22.4598,2.479 20.8398,0.859 18.8498,0.859 L18.8498,0.859 Z"/>
      <path d="M18.1719 9.3833L11.1129 9.3833C10.6239 9.3833 10.2229 9.7483 10.2229 10.1943 10.2229 10.6403 10.6239 11.0053 11.1129 11.0053L18.1719 11.0053C18.6619 11.0053 19.0619 10.6403 19.0619 10.1943 19.0619 9.7483 18.6619 9.3833 18.1719 9.3833M18.2508 13.9568L6.0928 13.9568C5.6468 13.9568 5.2818 14.3218 5.2818 14.7678 5.2818 15.2138 5.6468 15.5788 6.0928 15.5788L18.2508 15.5788C18.6968 15.5788 19.0618 15.2138 19.0618 14.7678 19.0618 14.3218 18.6968 13.9568 18.2508 13.9568M18.2508 17.8655L6.0928 17.8655C5.6468 17.8655 5.2818 18.2305 5.2818 18.6765 5.2818 19.1225 5.6468 19.4875 6.0928 19.4875L18.2508 19.4875C18.6968 19.4875 19.0618 19.1225 19.0618 18.6765 19.0618 18.2305 18.6968 17.8655 18.2508 17.8655"/>
    </g>
  </g>
</svg>
