<svg xmlns="http://www.w3.org/2000/svg" xmlns:svg="http://www.w3.org/2000/svg" width="42" height="42">
    <style type="text/css">
        .st0{fill:#66BBE4;}
    </style>
    <g>
        <title>
            Layer 1
        </title>
        <ellipse id="svg_19" cx="21" cy="21.13788" fill="#ffffff" stroke="#ffffff" stroke-width="5" rx="12.414" ry="14.14929"/>
        <g id="svg_1">
            <path id="svg_2" d="m27.2,17.4l-5.8,-3.2c-0.2,-0.2 -0.6,-0.2 -0.8,0l-5.8,3.2c-0.2,0.2 -0.2,0.6 0,0.8l5.8,3.2c0.2,0.2 0.6,0.2 0.8,0l5.8,-3.2c0.2,-0.2 0.2,-0.6 0,-0.8z" class="st0"/>
            <path id="svg_3" d="m21.5,25.6c-0.2,0.3 -0.9,0.1 -1.2,-0.2l-4,-2.2l-1.5,0.8c-0.2,0.2 -0.2,0.6 0,0.8l5.8,3.2c0.2,0.2 0.6,0.2 0.8,0l5.8,-3.2c0.2,-0.2 0.2,-0.6 0,-0.8l-1.5,-0.8l-4.2,2.4z" class="st0"/>
            <path id="svg_4" d="m21,1.1c-11,0 -20,9 -20,20s9,20 20,20s20,-9 20,-20s-9,-20 -20,-20zm7.8,22.8c0.3,0.3 0.3,0.7 0,1l-7.3,4c-0.3,0.3 -0.7,0.3 -1,0l-7.3,-4c-0.3,-0.3 -0.3,-0.7 0,-1l2.2,-1.2l-2.4,-1.3c-0.3,-0.3 -0.3,-0.7 0,-1l1.9,-1.1l-1.7,-1c-0.3,-0.3 -0.3,-0.7 0,-1l7.3,-4c0.3,-0.3 0.7,-0.3 1,0l7.3,4c0.3,0.3 0.3,0.7 0,1l-1.7,1l2,1.2c0.2,0.2 0.2,0.7 -0.1,1l-2.6,1.4l2.4,1z" class="st0"/>
        </g>
    </g>
</svg>
