<svg xmlns="http://www.w3.org/2000/svg" xmlns:xlink="http://www.w3.org/1999/xlink" viewBox="0 0 42 42">
  <defs>
    <polygon id="a" points="0 18 0 36 36 36 36 18 36 0 0 0"/>
    <polygon id="c" points="0 36 36 36 36 0 0 0"/>
  </defs>
  <g fill="none" fill-rule="evenodd">
    <rect width="42" height="42" fill="none"/>
    <g transform="translate(3 3)">
      <mask id="b" fill="white">
        <use xlink:href="#a"/>
      </mask>
      <path fill="#C5D9EA" d="M36,18.0000667 C36,27.9414 27.9413333,36.0000667 18,36.0000667 C8.05866667,36.0000667 0,27.9414 0,18.0000667 C0,8.05873333 8.05866667,6.66666667e-05 18,6.66666667e-05 C27.9413333,6.66666667e-05 36,8.05873333 36,18.0000667" mask="url(#b)"/>
      <mask id="d" fill="white">
        <use xlink:href="#c"/>
      </mask>
      <path fill="#FFFFFF" d="M10.7813827,15.1222557 L25.2186173,15.1222557 L25.2186173,10.7813495 L10.7813827,10.7813495 L10.7813827,15.1222557 Z M10.7813827,20.0304896 L25.2186173,20.0304896 L25.2186173,15.9328209 L10.7813827,15.9328209 L10.7813827,20.0304896 Z M10.7813827,25.217971 L25.2186173,25.217971 L25.2186173,20.8417343 L10.7813827,20.8417343 L10.7813827,25.217971 Z M10,10 L10,26 L26,26 L26,20.8417343 L26,20.0304896 L26,15.9335004 L26,15.1222557 L26,10 L10,10 Z" mask="url(#d)"/>
      <path fill="#FFFFFF" d="M17.580218 13L12.419782 13C12.1877417 13 12 13.2236181 12 13.5 12 13.7755444 12.1877417 14 12.419782 14L17.580218 14C17.8122583 14 18 13.7755444 18 13.5 18 13.2236181 17.8122583 13 17.580218 13M12.419782 19L17.580218 19C17.8122583 19 18 18.7755444 18 18.5 18 18.2236181 17.8122583 18 17.580218 18L12.419782 18C12.1877417 18 12 18.2236181 12 18.5 12 18.7755444 12.1877417 19 12.419782 19M12.419782 24L17.580218 24C17.8122583 24 18 23.7755444 18 23.5 18 23.2236181 17.8122583 23 17.580218 23L12.419782 23C12.1877417 23 12 23.2236181 12 23.5 12 23.7755444 12.1877417 24 12.419782 24" mask="url(#d)"/>
    </g>
  </g>
</svg>
